<?xml version="1.0" encoding="UTF-8" standalone="no"?>
<svg
   viewBox="0 0 500 380"
   version="1.1"
   id="svg459"
   sodipodi:docname="animales.svg"
   inkscape:version="1.2.2 (732a01da63, 2022-12-09)"
   width="500"
   height="380"
   xmlns:inkscape="http://www.inkscape.org/namespaces/inkscape"
   xmlns:sodipodi="http://sodipodi.sourceforge.net/DTD/sodipodi-0.dtd"
   xmlns="http://www.w3.org/2000/svg"
   xmlns:svg="http://www.w3.org/2000/svg">
  <defs
     id="defs463" />
  <sodipodi:namedview
     id="namedview461"
     pagecolor="#ffffff"
     bordercolor="#000000"
     borderopacity="0.25"
     inkscape:showpageshadow="2"
     inkscape:pageopacity="0.0"
     inkscape:pagecheckerboard="0"
     inkscape:deskcolor="#d1d1d1"
     showgrid="false"
     inkscape:zoom="1.628"
     inkscape:cx="250"
     inkscape:cy="244.16462"
     inkscape:window-width="1920"
     inkscape:window-height="1001"
     inkscape:window-x="-9"
     inkscape:window-y="-9"
     inkscape:window-maximized="1"
     inkscape:current-layer="svg459" />
  <g
     id="freepik--background-complete--inject-92"
     transform="translate(-9.2137592,-50.982801)">
    <rect
       y="382.39999"
       width="500"
       height="0.25"
       style="fill:#ebebeb"
       id="rect2"
       x="0" />
    <rect
       x="416.78"
       y="398.48999"
       width="33.119999"
       height="0.25"
       style="fill:#ebebeb"
       id="rect4" />
    <rect
       x="322.53"
       y="401.20999"
       width="8.6899996"
       height="0.25"
       style="fill:#ebebeb"
       id="rect6" />
    <rect
       x="396.59"
       y="389.20999"
       width="19.190001"
       height="0.25"
       style="fill:#ebebeb"
       id="rect8" />
    <rect
       x="52.459999"
       y="390.89001"
       width="43.189999"
       height="0.25"
       style="fill:#ebebeb"
       id="rect10" />
    <rect
       x="104.56"
       y="390.89001"
       width="6.3299999"
       height="0.25"
       style="fill:#ebebeb"
       id="rect12" />
    <rect
       x="131.47"
       y="395.10999"
       width="93.68"
       height="0.25"
       style="fill:#ebebeb"
       id="rect14" />
    <path
       d="M 237,337.8 H 43.91 a 5.71,5.71 0 0 1 -5.7,-5.71 V 60.66 A 5.71,5.71 0 0 1 43.91,55 H 237 a 5.71,5.71 0 0 1 5.71,5.71 V 332.09 A 5.71,5.71 0 0 1 237,337.8 Z M 43.91,55.2 a 5.46,5.46 0 0 0 -5.45,5.46 v 271.43 a 5.46,5.46 0 0 0 5.45,5.46 H 237 a 5.47,5.47 0 0 0 5.46,-5.46 V 60.66 A 5.47,5.47 0 0 0 237,55.2 Z"
       style="fill:#ebebeb"
       id="path16" />
    <path
       d="m 453.31,337.8 h -193.1 a 5.72,5.72 0 0 1 -5.71,-5.71 V 60.66 A 5.72,5.72 0 0 1 260.21,55 h 193.1 a 5.71,5.71 0 0 1 5.69,5.66 v 271.43 a 5.71,5.71 0 0 1 -5.69,5.71 z M 260.21,55.2 a 5.47,5.47 0 0 0 -5.46,5.46 v 271.43 a 5.47,5.47 0 0 0 5.46,5.46 h 193.1 a 5.47,5.47 0 0 0 5.46,-5.46 V 60.66 a 5.47,5.47 0 0 0 -5.46,-5.46 z"
       style="fill:#ebebeb"
       id="path18" />
    <rect
       x="205.77"
       y="298.39001"
       width="98.010002"
       height="80.519997"
       transform="rotate(180,254.77,338.65)"
       style="fill:#e0e0e0"
       id="rect20" />
    <path
       d="M 205.1,300.32 V 377 h -3.94 v 4.21 H 308.38 V 377 h -2.94 v -76.68 h 2.94 v -4.21 H 201.16 v 4.21 z M 282.92,377 h -6.66 v -76.68 h 6.66 z M 286,300.32 h 6.67 V 377 H 286 Z M 273.19,377 h -6.66 v -76.68 h 6.66 z m -9.72,0 h -6.67 v -76.68 h 6.67 z m -9.73,0 h -6.67 v -76.68 h 6.67 z m -9.74,0 h -6.66 V 300.32 H 244 Z m -9.73,0 h -6.66 v -76.68 h 6.66 z m -9.72,0 h -6.67 v -76.68 h 6.67 z m 77.82,0 h -6.67 v -76.68 h 6.67 z m -94.22,-76.66 h 6.67 V 377 h -6.67 z"
       style="fill:#ebebeb"
       id="path22" />
    <rect
       x="205.77"
       y="212.92999"
       width="98.010002"
       height="80.519997"
       transform="rotate(180,254.77,253.185)"
       style="fill:#f0f0f0"
       id="rect24" />
    <path
       d="m 205.1,214.86 v 76.65 h -3.94 v 4.21 h 107.22 v -4.21 h -2.94 v -76.65 h 2.94 v -4.21 H 201.16 v 4.21 z m 77.82,76.65 h -6.66 v -76.65 h 6.66 z M 286,214.86 h 6.67 v 76.65 H 286 Z m -12.79,76.65 h -6.66 v -76.65 h 6.66 z m -9.72,0 h -6.69 v -76.65 h 6.67 z m -9.73,0 h -6.67 v -76.65 h 6.67 z m -9.73,0 h -6.66 V 214.86 H 244 Z m -9.73,0 h -6.66 v -76.65 h 6.66 z m -9.72,0 h -6.67 v -76.65 h 6.67 z m 77.82,0 h -6.67 v -76.65 h 6.67 z m -94.22,-76.65 h 6.67 v 76.65 h -6.67 z"
       style="fill:#fafafa"
       id="path26" />
    <circle
       cx="247.75"
       cy="96.199997"
       r="23.549999"
       transform="rotate(-45,247.74724,96.199735)"
       style="fill:#e0e0e0"
       id="circle28" />
    <circle
       cx="247.75"
       cy="96.199997"
       r="20.030001"
       transform="rotate(-33.3,247.73905,96.201699)"
       style="fill:#f0f0f0"
       id="circle30" />
    <polyline
       points="248.7 82.46 248.7 96.46 257.98 91.21"
       style="fill:#f0f0f0;stroke:#e0e0e0;stroke-width:2px;stroke-linecap:round;stroke-linejoin:round"
       id="polyline32" />
    <rect
       x="353.45999"
       y="98.629997"
       width="90.620003"
       height="120.03"
       style="fill:#f5f5f5"
       id="rect34" />
    <rect
       x="357.32999"
       y="102.33"
       width="82.910004"
       height="112.62"
       style="fill:#e6e6e6"
       id="rect36" />
    <path
       d="M 440.23,102.33 V 215 h -82.9 v -3.59 c 8.36,-8.49 24.2,-17.37 25.16,-23.91 1.47,-9.93 -15.35,-11 -9,-25.45 6.35,-14.45 44.37,-9.45 52.9,-23.47 8.53,-14.02 -2.92,-19.38 -7.31,-27.18 -1.53,-2.71 -0.84,-5.95 0.69,-9 z"
       style="fill:#ebebeb"
       id="path38" />
    <path
       d="m 393.62,119.8 7.64,-4.91 c 1.63,2.55 0,10.68 0,10.68 l 4.23,8.41 c 0,0 -8.45,11.36 -16.9,12.69 -8.45,1.33 -22.76,-7.46 -22.76,-7.46 l 2.39,-8.87 a 15,15 0 0 1 -2.39,-13.22 l 9.62,4.08 c 0,0 10.31,-6.4 18.17,-1.4 z"
       style="fill:#f0f0f0"
       id="path40" />
    <polygon
       points="381.92,132.64 388.26,131.75 385.74,135.65 "
       style="fill:#e0e0e0"
       id="polygon42" />
    <path
       d="m 377.1,131 c 0,0.83 -0.34,1.5 -0.75,1.5 -0.41,0 -0.75,-0.67 -0.75,-1.5 0,-0.83 0.34,-1.49 0.75,-1.49 0.41,0 0.75,0.63 0.75,1.49 z"
       style="fill:#e0e0e0"
       id="path44" />
    <path
       d="m 393.58,129.35 c 0.13,0.81 -0.09,1.53 -0.5,1.59 -0.41,0.06 -0.84,-0.54 -1,-1.35 -0.16,-0.81 0.1,-1.53 0.5,-1.59 0.4,-0.06 0.87,0.54 1,1.35 z"
       style="fill:#e0e0e0"
       id="path46" />
    <path
       d="m 385.74,135.65 c 0,0 -0.14,3.73 -3.25,3.49 a 2.92,2.92 0 0 0 2.2,0 c 0,0 0.91,3.28 2.19,3.28 1.28,0 1.38,-3.72 1.38,-3.72 0,0 1.67,0.12 2.34,-0.79 0,0 -3.84,1.77 -4.63,-3.29 z"
       style="fill:#e0e0e0"
       id="path48" />
    <path
       d="m 368.72,127.86 c 0,0 1.46,-3.47 3.47,-4.93 l -5.54,-4 c 0,0 -1.35,5.7 2.07,8.93 z"
       style="fill:#e0e0e0"
       id="path50" />
    <path
       d="m 396,120.92 c 0,0 3.17,1.83 4.21,3.78 0,0 1.46,-4.58 0.36,-7.44 z"
       style="fill:#e0e0e0"
       id="path52" />
    <path
       d="m 420.38,167.56 c -2.25,-1.39 -5.06,-6.89 -17.05,-5.26 -11.99,1.63 -14.26,11 -3.53,16.25 10.73,5.25 24.1,-8.82 20.58,-10.99 z"
       style="fill:#e0e0e0"
       id="path54" />
    <path
       d="m 419.42,167.17 c -7.59,-2.72 -14.14,-6.46 -18.28,4.15 0,0 -8.41,-3.66 -9.26,2.07 -0.85,5.73 1.83,16.21 8.29,21.45 6.46,5.24 19.62,6.71 26.08,1.71 6.46,-5 6.09,-24.74 -6.83,-29.38 z"
       style="fill:#f5f5f5"
       id="path56" />
    <polygon
       points="396.02,172.05 401,174.85 396.02,176.44 "
       style="fill:#e0e0e0"
       id="polygon58" />
    <path
       d="m 397.12,175 a 7.26,7.26 0 0 0 0,7 c 1.95,4 6.21,2.18 6.21,2.18 0,0 -4.44,4.75 -7.08,2.92 -2.64,-1.83 0,-4.26 0,-4.26 0,0 -2.44,-1.34 -3.41,-5.37 0,0 1.17,2.26 2.45,2.69 0,-0.06 -0.29,-4.07 1.83,-5.16 z"
       style="fill:#e0e0e0"
       id="path60" />
    <path
       d="m 411.76,176.65 c -0.23,0.79 -0.74,1.34 -1.14,1.22 -0.4,-0.12 -0.53,-0.85 -0.3,-1.64 0.23,-0.79 0.74,-1.34 1.14,-1.22 0.4,0.12 0.54,0.85 0.3,1.64 z"
       style="fill:#e0e0e0"
       id="path62" />
    <path
       d="m 403.22,171.71 c -0.23,0.79 -0.74,1.34 -1.13,1.23 -0.39,-0.11 -0.53,-0.86 -0.3,-1.65 0.23,-0.79 0.74,-1.34 1.13,-1.22 0.39,0.12 0.53,0.85 0.3,1.64 z"
       style="fill:#e0e0e0"
       id="path64" />
    <path
       d="m 428.73,170.75 c -5,-5 -12.84,0.43 -13,11.19 -0.16,10.76 -2.6,12.7 2.11,12.86 4.71,0.16 13.16,1 15.28,-1.62 2.12,-2.62 0.32,-17.72 -4.39,-22.43 z"
       style="fill:#e0e0e0"
       id="path66" />
    <rect
       x="287.69"
       y="114.57"
       width="46.25"
       height="61.259998"
       style="fill:#ebebeb"
       id="rect68" />
    <rect
       x="289.66"
       y="116.46"
       width="42.310001"
       height="57.48"
       style="fill:#f5f5f5"
       id="rect70" />
    <path
       d="m 304.72,150 c 1.37,-6.05 14.34,-8.87 18.71,-3.92 4.37,4.95 -0.24,14.17 -8.32,14.52 -7.69,0.4 -12.47,-1.43 -10.39,-10.6 z"
       style="fill:#ebebeb"
       id="path72" />
    <path
       d="m 312.58,139.67 c -3.87,0.06 -5,-9.15 -2,-9.94 3,-0.79 7.15,9.87 2,9.94 z"
       style="fill:#ebebeb"
       id="path74" />
    <path
       d="m 320.5,139.67 c -1.39,-0.73 -4.22,-8.57 -0.8,-9.06 3.42,-0.49 7.65,12.68 0.8,9.06 z"
       style="fill:#ebebeb"
       id="path76" />
    <path
       d="m 303.75,143.57 c 0.81,-0.51 2.11,-8 -2.77,-8.89 -4.88,-0.89 -1.85,11.8 2.77,8.89 z"
       style="fill:#ebebeb"
       id="path78" />
    <path
       d="m 301.51,153.2 c 1.67,-2.62 -0.66,-7.25 -3.83,-6.86 -3.17,0.39 0.81,11.6 3.83,6.86 z"
       style="fill:#ebebeb"
       id="path80" />
  </g>
  <g
     id="freepik--Shadow--inject-92"
     transform="translate(-3.0712531,-101.35135)">
    <ellipse
       id="freepik--path--inject-92"
       cx="250"
       cy="416.23999"
       rx="193.89"
       ry="11.32"
       style="fill:#f5f5f5" />
  </g>
  <g
     id="freepik--Cages--inject-92"
     transform="translate(-3.0712531,-101.35135)">
    <rect
       x="68.849998"
       y="159.99001"
       width="122.74"
       height="100.84"
       transform="rotate(180,130.22,210.415)"
       style="fill:#407bff"
       id="rect85" />
    <rect
       x="68.839996"
       y="160"
       width="122.75"
       height="100.84"
       style="opacity:0.4;isolation:isolate;fill:#ffffff"
       id="rect87" />
    <path
       d="m 131.73,229.84 a 16.22,16.22 0 0 0 3.84,-0.44 2.5019243,2.5019243 0 0 0 -1.27,-4.84 c -0.06,0 -5.3,1.3 -7.85,-1.75 a 7.62,7.62 0 0 1 -1.82,-6.37 c 0.68,-3.34 4,-6.59 9.45,-9.38 10.49,-5.32 8.63,-11.29 7.81,-13 -1.71,-3.57 -6.28,-5.61 -9.38,-4.2 a 2.5,2.5 0 1 0 2.07,4.55 3.46,3.46 0 0 1 2.87,2 c 0.68,1.73 -1.48,4.12 -5.63,6.22 -7,3.56 -11.07,7.87 -12.09,12.84 a 12.55,12.55 0 0 0 2.88,10.53 11.54,11.54 0 0 0 9.12,3.84 z"
       style="fill:#407bff"
       id="path89" />
    <g
       style="opacity:0.8;isolation:isolate"
       id="g93">
      <path
         d="m 131.73,229.84 a 16.22,16.22 0 0 0 3.84,-0.44 2.5019243,2.5019243 0 0 0 -1.27,-4.84 c -0.06,0 -5.3,1.3 -7.85,-1.75 a 7.62,7.62 0 0 1 -1.82,-6.37 c 0.68,-3.34 4,-6.59 9.45,-9.38 10.49,-5.32 8.63,-11.29 7.81,-13 -1.71,-3.57 -6.28,-5.61 -9.38,-4.2 a 2.5,2.5 0 1 0 2.07,4.55 3.46,3.46 0 0 1 2.87,2 c 0.68,1.73 -1.48,4.12 -5.63,6.22 -7,3.56 -11.07,7.87 -12.09,12.84 a 12.55,12.55 0 0 0 2.88,10.53 11.54,11.54 0 0 0 9.12,3.84 z"
         style="fill:#ffffff"
         id="path91" />
    </g>
    <path
       d="m 162.68,233.51 c 0.21,-0.48 0.43,-1 0.66,-1.46 2.29,-0.33 4.57,-0.74 6.85,-1.11 a 182.21,182.21 0 0 1 -6.52,26.26 c 0,0 3.75,-0.15 2.48,2.27 h -5.88 c -0.67,-0.81 5.9,-15.12 2.41,-25.96 z"
       style="fill:#407bff"
       id="path95" />
    <path
       d="m 150.65,233.71 c 0,0 -2.72,8.27 -8.09,13.68 l 4.05,9.55 c 0,0 3.25,0.74 2.59,2.53 h -4.54 c 0,0 -6.27,-10.49 -6.53,-11.61 -0.26,-1.12 -1.45,-12.73 -1.45,-12.73 z"
       style="fill:#407bff"
       id="path97" />
    <path
       d="m 162.68,233.51 c 0.21,-0.48 0.43,-1 0.66,-1.46 2.29,-0.33 4.57,-0.74 6.85,-1.11 a 182.21,182.21 0 0 1 -6.52,26.26 c 0,0 3.75,-0.15 2.48,2.27 h -5.88 c -0.67,-0.81 5.9,-15.12 2.41,-25.96 z"
       style="opacity:0.8;isolation:isolate;fill:#ffffff"
       id="path99" />
    <path
       d="m 150.65,233.71 c 0,0 -2.72,8.27 -8.09,13.68 l 4.05,9.55 c 0,0 3.25,0.74 2.59,2.53 h -4.54 c 0,0 -6.27,-10.49 -6.53,-11.61 -0.26,-1.12 -1.45,-12.73 -1.45,-12.73 z"
       style="opacity:0.8;isolation:isolate;fill:#ffffff"
       id="path101" />
    <path
       d="m 131.22,226.48 c 3.33,-4.7 9,-2.57 25.5,-8.2 16.5,-5.63 9.89,-23.21 9.89,-23.21 l 5.5,4.42 5.84,-3.36 a 9.2,9.2 0 0 1 2,8.31 c -1.19,5.14 -5,13.18 -5.41,19.13 l 3.1,10.67 c 0,0 10.48,2.19 11.41,4.42 0.93,2.23 -0.66,5.78 -0.66,5.78 l -2.91,-0.23 1.52,-4 c -4.81,-1.62 -13,-1.77 -14.7,-2.57 a 18.45,18.45 0 0 1 -6.1,-5 c -1.09,0.91 -7.66,5.74 -24.63,5.63 0,0 -5.69,7.63 -11.6,9.55 l -0.94,9.23 c 0,0 3.58,0.15 3.45,2.35 h -6.33 l -0.62,-13.05 c 3.76,-9.74 2.47,-15.3 5.69,-19.87 z"
       style="fill:#407bff"
       id="path103" />
    <path
       d="m 131.22,226.48 c 3.33,-4.7 9,-2.57 25.5,-8.2 16.5,-5.63 9.89,-23.21 9.89,-23.21 l 5.5,4.42 5.84,-3.36 a 9.2,9.2 0 0 1 2,8.31 c -1.19,5.14 -5,13.18 -5.41,19.13 l 3.1,10.67 c 0,0 10.48,2.19 11.41,4.42 0.93,2.23 -0.66,5.78 -0.66,5.78 l -2.91,-0.23 1.52,-4 c -4.81,-1.62 -13,-1.77 -14.7,-2.57 a 18.45,18.45 0 0 1 -6.1,-5 c -1.09,0.91 -7.66,5.74 -24.63,5.63 0,0 -5.69,7.63 -11.6,9.55 l -0.94,9.23 c 0,0 3.58,0.15 3.45,2.35 h -6.33 l -0.62,-13.05 c 3.76,-9.74 2.47,-15.3 5.69,-19.87 z"
       style="opacity:0.9;isolation:isolate;fill:#ffffff"
       id="path105" />
    <path
       d="m 177.32,196.39 c 0,0 0.56,-0.49 0.76,-0.49 0.2,0 0.45,0.95 0.45,0.95 z"
       style="fill:#a24e3f"
       id="path107" />
    <path
       d="m 172.11,199.49 a 12.45,12.45 0 0 0 -1.87,1.91 l -2.18,-4.55 z"
       style="opacity:0.2;isolation:isolate"
       id="path109" />
    <polygon
       points="68.84,160 68.84,184.48 191.59,244.82 191.59,160 "
       style="opacity:0.2;isolation:isolate"
       id="polygon111" />
    <path
       d="m 68,162.41 v 96 h -4.92 v 5.27 h 134.28 v -5.27 h -3.68 v -96 h 3.68 v -5.27 H 63.08 v 5.27 z m 97.47,96 h -8.35 v -96 h 8.35 z m 3.83,-96 h 8.35 v 96 h -8.35 z m -16,96 H 145 v -96 h 8.34 z m -12.18,0 h -8.35 v -96 h 8.35 z m -12.18,0 h -8.35 v -96 h 8.35 z m -12.18,0 h -8.36 v -96 h 8.35 z m -12.19,0 h -8.35 v -96 h 8.34 z m -12.18,0 H 84 v -96 h 8.35 z m 97.46,0 h -8.35 v -96 h 8.35 z m -118,-96 h 8.35 v 96 h -8.35 z"
       style="fill:#407bff"
       id="path113" />
    <g
       style="opacity:0.7;isolation:isolate"
       id="g117">
      <path
         d="m 68,162.41 v 96 h -4.92 v 5.27 h 134.28 v -5.27 h -3.68 v -96 h 3.68 v -5.27 H 63.08 v 5.27 z m 97.47,96 h -8.35 v -96 h 8.35 z m 3.83,-96 h 8.35 v 96 h -8.35 z m -16,96 H 145 v -96 h 8.34 z m -12.18,0 h -8.35 v -96 h 8.35 z m -12.18,0 h -8.35 v -96 h 8.35 z m -12.18,0 h -8.36 v -96 h 8.35 z m -12.19,0 h -8.35 v -96 h 8.34 z m -12.18,0 H 84 v -96 h 8.35 z m 97.46,0 h -8.35 v -96 h 8.35 z m -118,-96 h 8.35 v 96 h -8.35 z"
         style="fill:#ffffff"
         id="path115" />
    </g>
    <rect
       x="69.5"
       y="265.85001"
       width="145.44"
       height="119.48"
       transform="rotate(180,142.22,325.59)"
       style="fill:#407bff"
       id="rect119" />
    <rect
       x="69.5"
       y="265.85001"
       width="145.44"
       height="119.48"
       style="opacity:0.4;isolation:isolate;fill:#ffffff"
       id="rect121" />
    <path
       d="m 88.38,353.42 c 16.29,-6.71 43.5,-3.81 56,10.32 12.5,14.13 6.5,18.29 -10,18.79 -16.5,0.5 -59.53,0 -59.53,0 0,0 -10.47,-19.22 13.53,-29.11 z"
       style="fill:#407bff"
       id="path123" />
    <path
       d="m 88.38,353.42 c 16.29,-6.71 43.5,-3.81 56,10.32 12.5,14.13 6.5,18.29 -10,18.79 -16.5,0.5 -59.53,0 -59.53,0 0,0 -10.47,-19.22 13.53,-29.11 z"
       style="opacity:0.1;isolation:isolate;fill:#ffffff"
       id="path125" />
    <path
       d="m 94.63,362 a 13,13 0 0 1 6,-5.66 c 0,0 1.36,7.67 0,10 0,0 3,4.57 2.51,8.07 -0.31,2.18 -3.46,5.56 -4.41,7.17 -0.25,0.42 -4,1.15 -5.66,0.7 -0.87,-0.24 -9.12,-0.07 -10.25,-0.27 -1.13,-0.2 -3.75,-2.67 -3.75,-2.67 l 1.53,3.23 29.05,0.16 c 0,0 -5,-1.25 -4.66,-4 0.34,-2.75 8,-4.58 14.5,-2.91 6.5,1.67 21.33,0 20.66,-5.17 -0.67,-5.17 -6.5,-4.33 -6.5,-4.33 0,0 3.34,3 3.17,4.83 -0.17,1.83 -9,5 -13.17,3.84 -4.17,-1.16 -9.16,-6.84 -9,-9.5 0.16,-2.66 4,-3.84 4,-3.84 0,0 -5.28,-0.91 -6.89,0.92 -1.61,1.83 -0.77,7.92 -0.77,7.92 h -2.67 c 0,0 -1.55,-4.66 -4.33,-6.67 0,0 0.33,-7.38 -1.84,-9.94 0.06,0.04 -5.44,0.12 -7.52,8.12 z"
       style="opacity:0.4;isolation:isolate"
       id="path127" />
    <path
       d="m 82.88,365.19 c 0,0 -1.67,-1.41 -6.17,-1.45 0,0 -1.5,3.95 0,6.79 0,0 0.34,-3 1.67,-4.17 a 5.62,5.62 0 0 1 4.5,-1.17 z"
       style="opacity:0.4;isolation:isolate"
       id="path129" />
    <path
       d="m 101.71,373.69 c 0,0 -0.33,4 -3.33,2.5"
       style="fill:none;stroke:#263238;stroke-width:0.5px;stroke-linecap:round;stroke-linejoin:round"
       id="path131" />
    <path
       d="m 92.55,377.36 c 0,0 -1.17,4.14 -5.34,1.41"
       style="fill:none;stroke:#263238;stroke-width:0.5px;stroke-linecap:round;stroke-linejoin:round"
       id="path133" />
    <polygon
       points="97.63,381.53 98.38,380.21 96.3,380.86 "
       style="opacity:0.4;isolation:isolate"
       id="polygon135" />
    <polygon
       points="69.5,265.85 69.5,294.86 214.94,366.36 214.94,265.85 "
       style="opacity:0.2;isolation:isolate"
       id="polygon137" />
    <path
       d="m 68.51,268.71 v 113.76 h -5.84 v 6.24 h 159.1 v -6.24 h -4.36 V 268.71 h 4.36 v -6.24 H 62.67 v 6.24 z M 184,382.47 h -9.89 V 268.71 H 184 Z m 4.54,-113.76 h 9.89 v 113.76 h -9.89 z m -19,113.76 h -9.89 V 268.71 h 9.89 z m -14.43,0 h -9.89 V 268.71 h 9.89 z m -14.44,0 H 130.8 V 268.71 h 9.89 z m -14.43,0 h -9.9 V 268.71 h 9.9 z m -14.44,0 h -9.89 V 268.71 h 9.89 z m -14.43,0 h -9.9 V 268.71 h 9.9 z m 115.48,0 H 203 V 268.71 h 9.89 z M 73.06,268.71 H 83 v 113.76 h -9.94 z"
       style="fill:#407bff"
       id="path139" />
    <g
       style="opacity:0.7;isolation:isolate"
       id="g143">
      <path
         d="m 68.51,268.71 v 113.76 h -5.84 v 6.24 h 159.1 v -6.24 h -4.36 V 268.71 h 4.36 v -6.24 H 62.67 v 6.24 z M 184,382.47 h -9.89 V 268.71 H 184 Z m 4.54,-113.76 h 9.89 v 113.76 h -9.89 z m -19,113.76 h -9.89 V 268.71 h 9.89 z m -14.43,0 h -9.89 V 268.71 h 9.89 z m -14.44,0 H 130.8 V 268.71 h 9.89 z m -14.43,0 h -9.9 V 268.71 h 9.9 z m -14.44,0 h -9.89 V 268.71 h 9.89 z m -14.43,0 h -9.9 V 268.71 h 9.9 z m 115.48,0 H 203 V 268.71 h 9.89 z M 73.06,268.71 H 83 v 113.76 h -9.94 z"
         style="fill:#ffffff"
         id="path141" />
    </g>
  </g>
  <g
     id="freepik--Plant--inject-92"
     transform="translate(-3.0712531,-101.35135)">
    <path
       d="m 64.56,366.17 c 0,0 -5.65,-12.33 0.8,-24.48 6.45,-12.15 8.33,-15 4.21,-17.5 -4.12,-2.5 -6,9.72 -6,9.72 0,0 -3.47,-8.4 -0.6,-17.19 2.87,-8.79 4.66,-23.11 0.74,-24.65 -3.92,-1.54 -0.74,17.86 -4.14,24.48 a 57.1,57.1 0 0 1 -3.32,-14.43 c -0.46,-7.06 0.27,-18.33 -2.82,-21.22 -3.09,-2.89 -5.07,-0.89 -2,14.69 a 163.44,163.44 0 0 1 3,28.25 c 0,0 -6.7,-20.44 -11.2,-21 -4.5,-0.56 -4.5,6 -0.64,11.76 3.86,5.76 11.27,16 12.49,21.32 0,0 -7.36,-15.38 -14,-10.66 -6.64,4.72 5.77,14 11.28,17.36 5.51,3.36 9.35,24.38 9.35,24.38 z"
       style="fill:#407bff"
       id="path146" />
    <path
       d="m 64.56,366.17 c 0,0 -5.65,-12.33 0.8,-24.48 6.45,-12.15 8.33,-15 4.21,-17.5 -4.12,-2.5 -6,9.72 -6,9.72 0,0 -3.47,-8.4 -0.6,-17.19 2.87,-8.79 4.66,-23.11 0.74,-24.65 -3.92,-1.54 -0.74,17.86 -4.14,24.48 a 57.1,57.1 0 0 1 -3.32,-14.43 c -0.46,-7.06 0.27,-18.33 -2.82,-21.22 -3.09,-2.89 -5.07,-0.89 -2,14.69 a 163.44,163.44 0 0 1 3,28.25 c 0,0 -6.7,-20.44 -11.2,-21 -4.5,-0.56 -4.5,6 -0.64,11.76 3.86,5.76 11.27,16 12.49,21.32 0,0 -7.36,-15.38 -14,-10.66 -6.64,4.72 5.77,14 11.28,17.36 5.51,3.36 9.35,24.38 9.35,24.38 z"
       style="opacity:0.2;isolation:isolate"
       id="path148" />
    <path
       d="m 60.1,371.22 c 0,0 5.5,-12.41 -1.1,-24.46 -6.6,-12.05 -8.51,-14.89 -4.42,-17.44 4.09,-2.55 6.12,9.68 6.12,9.68 0,0 3.36,-8.45 0.39,-17.2 -2.97,-8.75 -4.93,-23 -1,-24.63 3.93,-1.63 1,17.85 4.43,24.41 a 57.22,57.22 0 0 0 3.15,-14.47 c 0.38,-7.07 -0.48,-18.33 2.57,-21.27 3.05,-2.94 5,-1 2.21,14.66 a 163.35,163.35 0 0 0 -2.68,28.29 c 0,0 6.46,-20.54 11,-21.2 4.54,-0.66 4.57,6 0.79,11.76 -3.78,5.76 -11.09,16.19 -12.24,21.5 0,0 7.17,-15.49 13.84,-10.88 C 89.83,334.58 77.48,344 72,347.45 66.52,350.9 63,372 63,372 Z"
       style="fill:#407bff"
       id="path150" />
    <polygon
       points="85.47,362.37 40.02,362.37 43.7,394.89 81.79,394.89 "
       style="fill:#263238"
       id="polygon152" />
  </g>
  <g
     id="freepik--Carrier--inject-92"
     transform="translate(-3.0712531,-101.35135)">
    <path
       d="m 401.65,316.38 0.79,-7.48 a 1.7,1.7 0 0 1 1.69,-1.53 h 18.3 a 1.7,1.7 0 0 1 1.7,1.53 l 0.79,7.48 3.29,-0.35 -0.78,-7.48 a 5,5 0 0 0 -5,-4.49 h -18.3 a 5,5 0 0 0 -5,4.5 l -0.79,7.47 z"
       style="fill:#407bff"
       id="path155" />
    <g
       style="opacity:0.3;isolation:isolate"
       id="g159">
      <path
         d="m 401.65,316.38 0.79,-7.48 a 1.7,1.7 0 0 1 1.69,-1.53 h 18.3 a 1.7,1.7 0 0 1 1.7,1.53 l 0.79,7.48 3.29,-0.35 -0.78,-7.48 a 5,5 0 0 0 -5,-4.49 h -18.3 a 5,5 0 0 0 -5,4.5 l -0.79,7.47 z"
         id="path157" />
    </g>
    <path
       d="m 358.46,351.68 v 4.41 a 3.06,3.06 0 0 0 3.06,3.06 H 362 l 9,30.13 a 7.85,7.85 0 0 0 7.52,5.61 h 65.13 a 7.82,7.82 0 0 0 7.51,-5.61 l 9,-30.13 h 0.48 a 3.06,3.06 0 0 0 3.06,-3.06 v -4.41 a 3.06,3.06 0 0 0 -3.06,-3.06 h -0.48 l -9,-30.13 a 7.84,7.84 0 0 0 -7.51,-5.61 h -65.17 a 7.86,7.86 0 0 0 -7.52,5.61 l -9,30.13 h -0.48 a 3.06,3.06 0 0 0 -3.02,3.06 z"
       style="fill:#407bff"
       id="path161" />
    <path
       d="m 362,359.15 9,30.13 a 7.85,7.85 0 0 0 7.52,5.61 h 65.13 a 7.82,7.82 0 0 0 7.51,-5.61 l 9,-30.13 z"
       style="opacity:0.3;isolation:isolate;fill:#ffffff"
       id="path163" />
    <g
       style="opacity:0.4;isolation:isolate"
       id="g167">
      <path
         d="m 451.33,340.18 a 1.13,1.13 0 0 0 1.07,-1.41 L 447.3,321 a 1.11,1.11 0 0 0 -2.13,0.61 l 5.1,17.77 a 1.11,1.11 0 0 0 1.06,0.8 z"
         id="path165" />
    </g>
    <g
       style="opacity:0.4;isolation:isolate"
       id="g171">
      <path
         d="m 444.86,340.18 a 1.06,1.06 0 0 0 0.31,-0.05 1.09,1.09 0 0 0 0.76,-1.36 L 440.83,321 a 1.11,1.11 0 0 0 -1.37,-0.76 1.12,1.12 0 0 0 -0.76,1.37 l 5.1,17.77 a 1.11,1.11 0 0 0 1.06,0.8 z"
         id="path169" />
    </g>
    <g
       style="opacity:0.4;isolation:isolate"
       id="g175">
      <path
         d="m 438.4,340.18 a 1,1 0 0 0 0.3,-0.05 1.09,1.09 0 0 0 0.76,-1.36 L 434.36,321 a 1.1030073,1.1030073 0 1 0 -2.12,0.61 l 5.09,17.77 a 1.12,1.12 0 0 0 1.07,0.8 z"
         id="path173" />
    </g>
    <g
       style="opacity:0.4;isolation:isolate"
       id="g179">
      <path
         d="m 431.93,340.18 a 1,1 0 0 0 0.3,-0.05 1.09,1.09 0 0 0 0.76,-1.36 L 427.89,321 a 1.1030073,1.1030073 0 1 0 -2.12,0.61 l 5.1,17.77 a 1.11,1.11 0 0 0 1.06,0.8 z"
         id="path177" />
    </g>
    <g
       style="opacity:0.4;isolation:isolate"
       id="g183">
      <path
         d="m 425.46,340.18 a 1,1 0 0 0 0.3,-0.05 1.09,1.09 0 0 0 0.76,-1.36 L 421.42,321 a 1.1030073,1.1030073 0 1 0 -2.12,0.61 l 5.1,17.77 a 1.11,1.11 0 0 0 1.06,0.8 z"
         id="path181" />
    </g>
    <g
       style="opacity:0.4;isolation:isolate"
       id="g187">
      <path
         d="m 419,340.18 a 1.18,1.18 0 0 0 0.31,-0.05 1.1,1.1 0 0 0 0.75,-1.36 L 415,321 a 1.11,1.11 0 0 0 -2.13,0.61 l 5.1,17.77 a 1.11,1.11 0 0 0 1.03,0.8 z"
         id="path185" />
    </g>
    <g
       style="opacity:0.4;isolation:isolate"
       id="g191">
      <path
         d="m 451.33,367.6 a 1.1,1.1 0 0 1 0.31,0 1.11,1.11 0 0 1 0.76,1.36 l -5.1,17.77 a 1.11,1.11 0 0 1 -2.13,-0.6 l 5.1,-17.77 a 1.1,1.1 0 0 1 1.06,-0.76 z"
         id="path189" />
    </g>
    <g
       style="opacity:0.4;isolation:isolate"
       id="g195">
      <path
         d="m 444.86,367.6 a 1.06,1.06 0 0 1 0.31,0 1.1,1.1 0 0 1 0.76,1.36 l -5.1,17.77 a 1.11,1.11 0 0 1 -2.13,-0.6 l 5.1,-17.77 a 1.1,1.1 0 0 1 1.06,-0.76 z"
         id="path193" />
    </g>
    <g
       style="opacity:0.4;isolation:isolate"
       id="g199">
      <path
         d="m 438.4,367.6 a 1,1 0 0 1 0.3,0 1.1,1.1 0 0 1 0.76,1.36 l -5.1,17.77 a 1.1016351,1.1016351 0 1 1 -2.12,-0.6 l 5.09,-17.77 a 1.11,1.11 0 0 1 1.07,-0.76 z"
         id="path197" />
    </g>
    <g
       style="opacity:0.4;isolation:isolate"
       id="g203">
      <path
         d="m 431.93,367.6 a 1,1 0 0 1 0.3,0 1.1,1.1 0 0 1 0.77,1.4 l -5.1,17.77 a 1.1016351,1.1016351 0 0 1 -2.12,-0.6 l 5.1,-17.77 a 1.1,1.1 0 0 1 1.05,-0.8 z"
         id="path201" />
    </g>
    <g
       style="opacity:0.4;isolation:isolate"
       id="g207">
      <path
         d="m 425.46,367.6 a 1,1 0 0 1 0.3,0 1.1,1.1 0 0 1 0.76,1.36 l -5.1,17.77 a 1.1016351,1.1016351 0 0 1 -2.12,-0.6 l 5.1,-17.77 a 1.1,1.1 0 0 1 1.06,-0.76 z"
         id="path205" />
    </g>
    <g
       style="opacity:0.4;isolation:isolate"
       id="g211">
      <path
         d="m 419,367.6 a 1.15,1.15 0 0 1 0.31,0 1.1,1.1 0 0 1 0.75,1.36 L 415,386.77 a 1.11,1.11 0 0 1 -2.13,-0.6 l 5.1,-17.77 a 1.1,1.1 0 0 1 1.03,-0.8 z"
         id="path209" />
    </g>
    <path
       d="m 361.52,348.62 h 5.84 l 6.42,-22.81 a 5,5 0 0 1 4.83,-3.66 h 19.57 a 5,5 0 0 1 4.84,3.66 l 6.42,22.81 h 51.12 a 3.06,3.06 0 0 1 3.06,3.06 v 4.41 a 3.06,3.06 0 0 1 -3.06,3.06 H 409.44 L 403,382 a 5,5 0 0 1 -4.84,3.66 H 378.61 A 5,5 0 0 1 373.78,382 l -6.43,-22.81 h -5.83 a 3.06,3.06 0 0 1 -3.06,-3.06 v -4.41 a 3.06,3.06 0 0 1 3.06,-3.1 z"
       style="fill:#407bff"
       id="path213" />
    <path
       d="m 358.46,351.68 v 4.41 a 3.06,3.06 0 0 0 3.06,3.06 H 362 l 9,30.13 a 7.85,7.85 0 0 0 7.52,5.61 h 19.84 a 7.82,7.82 0 0 0 7.51,-5.61 l 9,-30.13 h 0.49 a 3.06,3.06 0 0 0 3.06,-3.06 v -4.41 a 3.06,3.06 0 0 0 -3.06,-3.06 h -0.49 l -9,-30.13 a 7.84,7.84 0 0 0 -7.51,-5.61 h -19.88 a 7.86,7.86 0 0 0 -7.52,5.61 l -9,30.13 h -0.48 a 3.06,3.06 0 0 0 -3.02,3.06 z"
       style="opacity:0.2;isolation:isolate"
       id="path215" />
    <path
       d="m 361.52,348.62 h 5.84 l 6.42,-22.81 a 5,5 0 0 1 4.83,-3.66 h 19.57 a 5,5 0 0 1 4.84,3.66 l 6.42,22.81 h 51.12 a 3.06,3.06 0 0 1 3.06,3.06 v 4.41 a 3.06,3.06 0 0 1 -3.06,3.06 H 409.44 L 403,382 a 5,5 0 0 1 -4.84,3.66 H 378.61 A 5,5 0 0 1 373.78,382 l -6.43,-22.81 h -5.83 a 3.06,3.06 0 0 1 -3.06,-3.06 v -4.41 a 3.06,3.06 0 0 1 3.06,-3.1 z"
       style="opacity:0.4;isolation:isolate;fill:#ffffff"
       id="path217" />
    <g
       style="opacity:0.4"
       id="g221">
      <path
         d="m 397.67,380.67 a 1.11,1.11 0 0 0 1.11,-1.11 v -49.37 a 1.11,1.11 0 1 0 -2.21,0 v 49.37 a 1.1,1.1 0 0 0 1.1,1.11 z"
         id="path219" />
    </g>
    <g
       style="opacity:0.4"
       id="g225">
      <path
         d="m 392.46,380.67 a 1.11,1.11 0 0 0 1.11,-1.11 v -49.37 a 1.11,1.11 0 1 0 -2.21,0 v 49.37 a 1.1,1.1 0 0 0 1.1,1.11 z"
         id="path223" />
    </g>
    <g
       style="opacity:0.4"
       id="g229">
      <path
         d="m 387.26,380.67 a 1.1,1.1 0 0 0 1.1,-1.11 v -49.37 a 1.11,1.11 0 1 0 -2.21,0 v 49.37 a 1.11,1.11 0 0 0 1.11,1.11 z"
         id="path227" />
    </g>
    <g
       style="opacity:0.4"
       id="g233">
      <path
         d="m 382.05,380.67 a 1.1,1.1 0 0 0 1.1,-1.11 v -49.37 a 1.11,1.11 0 1 0 -2.21,0 v 49.37 a 1.11,1.11 0 0 0 1.11,1.11 z"
         id="path231" />
    </g>
    <g
       style="opacity:0.4"
       id="g237">
      <path
         d="m 376.84,380.67 a 1.1,1.1 0 0 0 1.1,-1.11 v -49.37 a 1.1,1.1 0 1 0 -2.2,0 v 49.37 a 1.1,1.1 0 0 0 1.1,1.11 z"
         id="path235" />
    </g>
  </g>
  <g
     id="freepik--character-2--inject-92"
     transform="translate(-3.0712531,-101.35135)">
    <path
       d="m 353.93,289 c 3.43,-0.26 4.86,0 8.3,0 3.44,0 6.7,-1.6 8.54,-1.44 1.84,0.16 11,2.62 11,2.62 0,0 4.35,4.37 7.91,34.83 0,0 -21.54,3.64 -34.42,1.34 -12.88,-2.3 -1.33,-37.35 -1.33,-37.35 z"
       style="fill:#407bff"
       id="path240" />
    <path
       d="m 353.93,289 c 3.43,-0.26 4.86,0 8.3,0 3.44,0 6.7,-1.6 8.54,-1.44 1.84,0.16 11,2.62 11,2.62 0,0 4.35,4.37 7.91,34.83 0,0 -21.54,3.64 -34.42,1.34 -12.88,-2.3 -1.33,-37.35 -1.33,-37.35 z"
       style="opacity:0.5;isolation:isolate;fill:#ffffff"
       id="path242" />
    <path
       d="m 364.4,254.88 c 0,0 -4.57,-7.12 -17,-5 -14.28,2.39 -19.12,20.08 -7.13,38 0,0 10.33,2.75 30.54,-2.6 -0.04,-0.06 8.57,-25.95 -6.41,-30.4 z"
       style="fill:#263238"
       id="path244" />
    <path
       d="m 380.43,334.8 c 14.05,19.89 1.28,41.6 -40.92,63.36 l 54.49,1.26 4.84,5.47 c 0,0 -46,6.12 -70.24,6.12 -14.46,0 -13.25,-13 2.84,-31.58 a 184.85,184.85 0 0 1 28.38,-26.3 46.66,46.66 0 0 1 2.53,-7.64 z"
       style="fill:#eec1bb"
       id="path246" />
    <path
       d="m 380.43,334.8 c 14.05,19.89 1.28,41.6 -40.92,63.36 l 54.49,1.26 4.84,5.47 c 0,0 -46,6.12 -70.24,6.12 -14.46,0 -13.25,-13 2.84,-31.58 a 184.85,184.85 0 0 1 28.38,-26.3 46.66,46.66 0 0 1 2.53,-7.64 z"
       style="opacity:0.1;isolation:isolate"
       id="path248" />
    <path
       d="m 348.22,304.83 -0.16,0.61 c -0.56,2.14 -2.53,9.51 -4.94,16.46 a 61,61 0 0 1 -5,11.5 c -0.12,0.19 -0.23,0.36 -0.35,0.52 -3,4.31 -27.56,7.07 -27.56,7.07 a 3.83,3.83 0 0 1 -1.06,2.11 c -0.78,0.54 -5.54,0.4 -7.91,0.2 -2.37,-0.2 -4.88,-8.5 -3.76,-8.75 0.6,-0.13 4.48,0.1 8.91,0.25 0.82,0 2.44,1.64 2.44,1.64 0,0 18.54,-5.52 20.29,-8.17 5.43,-8.27 8,-35.26 13.21,-35.61 5.54,-0.39 5.89,12.17 5.89,12.17 z"
       style="fill:#eec1bb"
       id="path250" />
    <path
       d="m 348.06,305.44 c -0.56,2.14 -2.53,9.51 -4.94,16.46 a 91.73,91.73 0 0 1 -1.61,-27.75 z"
       style="opacity:0.2;isolation:isolate"
       id="path252" />
    <path
       d="m 389.63,398.8 c -0.54,0.49 5.74,6.83 5.74,6.83 0,0 7.8,0.47 12.25,3.66 4.45,3.19 4.89,-1.15 1,-5.64 l -9.67,-11.09 c -2.79,-3.19 -3.77,1.17 -9.32,6.24 z"
       style="fill:#263238"
       id="path254" />
    <path
       d="m 389.63,398.8 c -0.54,0.49 5.74,6.83 5.74,6.83 0,0 7.8,0.47 12.25,3.66 4.45,3.19 4.89,-1.15 1,-5.64 l -9.67,-11.09 c -2.79,-3.19 -3.77,1.17 -9.32,6.24 z"
       style="opacity:0.2;isolation:isolate"
       id="path256" />
    <polygon
       points="406.43,405.09 390.8,404.89 391.55,413.33 411.26,410.56 "
       style="fill:#eec1bb"
       id="polygon258" />
    <path
       d="m 362.38,345.49 30.45,-5 c -0.94,0.15 -6.85,-12.94 -8.2,-17.61 -1.86,-6.44 -3.31,-18.76 -2.05,-26.73 v -0.06 a 5.92,5.92 0 0 0 -5.35,-6.82 c -2.43,-0.19 -4.87,-0.28 -7.31,-0.29 a 104.56,104.56 0 0 0 -14.47,0.85 c -6.16,1 -13.12,2.84 -13.12,2.84 0,0 -1,0.41 -0.52,7 0.44,6.25 2.79,26.55 20.57,45.82 z"
       style="fill:#407bff"
       id="path260" />
    <path
       d="m 351,283.69 c 0,0 3.92,2.54 4.6,4.21 a 1.87,1.87 0 0 1 0.1,0.33 22.84,22.84 0 0 1 0.4,2.88 c -1.15,3.36 3.14,5.28 3.14,5.28 7.64,-2.3 9.43,-6 9.43,-6 -6.28,-2.47 -7.49,-14.52 -7.49,-14.52 l -3,2.34 z"
       style="fill:#eec1bb"
       id="path262" />
    <path
       d="m 351,283.69 c 0,0 3.92,2.54 4.6,4.21 a 1.87,1.87 0 0 1 0.1,0.33 12.79,12.79 0 0 0 5,-10.9 l -2.54,0.86 z"
       style="opacity:0.2;isolation:isolate"
       id="path264" />
    <path
       d="m 349.64,256.9 c -8.21,1.12 -10.25,5.87 -9.7,14.42 0.69,10.67 4.05,17.87 14,14.21 13.54,-4.97 9.34,-30.53 -4.3,-28.63 z"
       style="fill:#eec1bb"
       id="path266" />
    <path
       d="m 345.18,270.13 a 17.56,17.56 0 0 1 -1.92,3.74 2.27,2.27 0 0 0 2.29,0.63 z"
       style="fill:#d4827d"
       id="path268" />
    <path
       d="m 350.12,268.78 c 0.07,0.68 0.5,1.18 0.95,1.13 0.45,-0.05 0.76,-0.64 0.68,-1.32 -0.08,-0.68 -0.5,-1.18 -0.95,-1.13 -0.45,0.05 -0.8,0.64 -0.68,1.32 z"
       style="fill:#263238"
       id="path270" />
    <path
       d="m 351,267.47 -1.54,-0.41 c 0,0 0.86,1.16 1.54,0.41 z"
       style="fill:#263238"
       id="path272" />
    <path
       d="m 341.69,269.58 c 0.07,0.68 0.5,1.19 0.95,1.14 0.45,-0.05 0.76,-0.64 0.68,-1.32 -0.08,-0.68 -0.5,-1.18 -0.95,-1.13 -0.45,0.05 -0.76,0.64 -0.68,1.31 z"
       style="fill:#263238"
       id="path274" />
    <path
       d="m 342.56,268.28 -1.54,-0.41 c 0,0 0.88,1.13 1.54,0.41 z"
       style="fill:#263238"
       id="path276" />
    <path
       d="m 349.43,263.1 a 4.31,4.31 0 0 1 3.73,0.75"
       style="fill:none;stroke:#263238;stroke-width:0.707962px;stroke-linecap:round;stroke-linejoin:round"
       id="path278" />
    <path
       d="m 343.41,263.56 a 3.87,3.87 0 0 0 -3.18,1.12"
       style="fill:none;stroke:#263238;stroke-width:0.707962px;stroke-linecap:round;stroke-linejoin:round"
       id="path280" />
    <path
       d="m 360.5,269.52 c 0,0 -4.76,-6.23 -4.89,-11.52 0,0 -17.17,-4.43 -15.73,12.2 0,0 -3.58,-14.45 10.49,-16.7 14.07,-2.25 17.31,17.13 10.86,24.28 0,0 2.22,-4.37 -0.73,-8.26 z"
       style="fill:#263238"
       id="path282" />
    <path
       d="m 359.4,271.43 a 3.63,3.63 0 0 1 3.43,-3.82 c 2.58,-0.07 4.5,5 -1.66,7.11 -0.88,0.28 -1.51,-0.51 -1.77,-3.29 z"
       style="fill:#eec1bb"
       id="path284" />
    <path
       d="m 346,277 a 22.28,22.28 0 0 1 0.83,3 h 0.54 c 2.48,-0.12 3.6,-1 4.08,-1.92 a 3.13,3.13 0 0 0 0.32,-1.48 3.24,3.24 0 0 0 -0.11,-0.86 11.63,11.63 0 0 1 -4.82,1.23 C 346.32,277 346,277 346,277 Z"
       style="fill:#263238"
       id="path286" />
    <path
       d="m 346.83,276.9 0.27,0.88 c 2.34,-0.12 4,-0.51 4.66,-1.25 a 3.24,3.24 0 0 0 -0.11,-0.86 11.63,11.63 0 0 1 -4.82,1.23 z"
       style="fill:#ffffff"
       id="path288" />
    <path
       d="m 347.36,279.93 c 2.48,-0.12 3.6,-1 4.08,-1.92 a 7.92,7.92 0 0 0 -2.73,0.67 3.06,3.06 0 0 0 -1.35,1.25 z"
       style="fill:#de5753"
       id="path290" />
    <path
       d="m 351.94,256.29 c 0,0 -0.24,14 13.34,14.43 l 5.49,14.5 c 0,0 8.93,-27.26 -12.59,-32.4 z"
       style="fill:#263238"
       id="path292" />
    <path
       d="m 392.83,340.47 c 14.05,19.88 1.28,41.6 -40.92,63.35 l 54.52,1.27 4.83,5.47 c 0,0 -46,6.12 -70.24,6.12 -14.46,0 -15.09,-14.77 2.84,-31.58 15.12,-14.17 26.69,-27.75 26.69,-27.75 -4.88,-3.49 -8.17,-11.86 -8.17,-11.86 z"
       style="fill:#eec1bb"
       id="path294" />
    <path
       d="m 402.6,404.51 c -0.54,0.49 5.75,6.83 5.75,6.83 0,0 7.8,0.47 12.24,3.66 4.44,3.19 4.89,-1.15 1,-5.64 l -9.66,-11.09 c -2.8,-3.19 -3.78,1.17 -9.33,6.24 z"
       style="fill:#263238"
       id="path296" />
    <path
       d="m 391.56,338.82 c 0,0 7.45,5.93 7.31,19 -0.14,13.07 -8.87,24.25 -34.3,40.18 l -38.11,-15.43 c 0,0 21,-21.59 32.24,-29.46 a 66.81,66.81 0 0 1 3.68,-7.64 z"
       style="fill:#263238"
       id="path298" />
    <path
       d="m 358.7,305.52 c 0,0 16.33,-15.38 23.06,-15.38 0,0 -6.49,-2.51 -11,-2.62 0,0 -8.5,7.76 -12.95,16 0,0 -4.63,-8.4 -3.89,-14.58 0,0 -7.93,1.13 -9.23,3.69 -1.3,2.56 5,10.89 11.15,12.87 0,0 -7.79,12.17 -5.74,25.12 l 3.83,0.46 c 0,0 -0.77,-17.4 3.69,-24 0,0 4.78,19.55 4.6,25.32 l 5,-1 c 0,0 -1.9,-17.97 -8.52,-25.88 z"
       style="fill:#407bff"
       id="path300" />
    <path
       d="m 358.7,305.52 c 0,0 16.33,-15.38 23.06,-15.38 0,0 -6.49,-2.51 -11,-2.62 0,0 -8.5,7.76 -12.95,16 0,0 -4.63,-8.4 -3.89,-14.58 0,0 -7.93,1.13 -9.23,3.69 -1.3,2.56 5,10.89 11.15,12.87 0,0 -7.79,12.17 -5.74,25.12 l 3.83,0.46 c 0,0 -0.77,-17.4 3.69,-24 0,0 4.78,19.55 4.6,25.32 l 5,-1 c 0,0 -1.9,-17.97 -8.52,-25.88 z"
       style="opacity:0.6;isolation:isolate;fill:#ffffff"
       id="path302" />
    <path
       d="m 298.73,330.84 c 0,0 -2,23.51 1,36 0,0 -11,11.14 -9.5,20.34 a 38.2,38.2 0 0 0 5.35,14.7 l -1.09,2.46 c 0,0 -4.16,4.67 -3.07,7.73 1.09,3.06 5.44,5 7.62,0.58 2.18,-4.42 4.55,-9.59 4.55,-10.58 0,-0.99 -0.6,-5.89 0.69,-9.85 1.29,-3.96 7.44,-8 7.44,-8 0,0 5.4,9.4 13,10.58 7.6,1.18 12.27,-6.23 12.27,-6.23 a 8.66,8.66 0 0 1 -3.95,1.68 c 0,0 3.95,-2.76 3.95,-7.22 a 24.45,24.45 0 0 1 -3,1.59 c 0,0 1.38,-3.54 0.89,-6.07 0,0 -3.76,5.47 -9.4,5.77 -5.64,0.3 -5.48,-15.57 -5.48,-15.57 l 6.42,-26.44 -1.68,-12.05 -7,-8.92 z"
       style="fill:#263238"
       id="path304" />
    <path
       d="m 298.73,330.84 c 0,0 -2,23.51 1,36 0,0 -11,11.14 -9.5,20.34 a 38.2,38.2 0 0 0 5.35,14.7 l -1.09,2.46 c 0,0 -4.16,4.67 -3.07,7.73 1.09,3.06 5.44,5 7.62,0.58 2.18,-4.42 4.55,-9.59 4.55,-10.58 0,-0.99 -0.6,-5.89 0.69,-9.85 1.29,-3.96 7.44,-8 7.44,-8 0,0 5.4,9.4 13,10.58 7.6,1.18 12.27,-6.23 12.27,-6.23 a 8.66,8.66 0 0 1 -3.95,1.68 c 0,0 3.95,-2.76 3.95,-7.22 a 24.45,24.45 0 0 1 -3,1.59 c 0,0 1.38,-3.54 0.89,-6.07 0,0 -3.76,5.47 -9.4,5.77 -5.64,0.3 -5.48,-15.57 -5.48,-15.57 l 6.42,-26.44 -1.68,-12.05 -7,-8.92 z"
       style="opacity:0.7;isolation:isolate;fill:#ffffff"
       id="path306" />
    <path
       d="m 299.56,330.33 c 0,0 -9.52,-4.14 -12.79,-2.1 -3.27,2.04 -3.71,10 -2.51,11.39 1.2,1.39 5.11,2.72 5.33,1 0.22,-1.72 0.84,-6.72 0.84,-6.72 0,0 4.64,5.67 10.05,6.59 5.41,0.92 10.42,-5.79 9,-10.08 -1.42,-4.29 -6.02,-2.8 -9.92,-0.08 z"
       style="fill:#263238"
       id="path308" />
    <path
       d="m 299.56,330.33 c 0,0 -9.52,-4.14 -12.79,-2.1 -3.27,2.04 -3.71,10 -2.51,11.39 1.2,1.39 5.11,2.72 5.33,1 0.22,-1.72 0.84,-6.72 0.84,-6.72 0,0 4.64,5.67 10.05,6.59 5.41,0.92 10.42,-5.79 9,-10.08 -1.42,-4.29 -6.02,-2.8 -9.92,-0.08 z"
       style="opacity:0.7;isolation:isolate;fill:#ffffff"
       id="path310" />
    <path
       d="m 313.32,392.65 c 0,0 2.67,3.86 2.08,6.43 -0.59,2.57 -4.16,2.43 -5.25,4.7 -1.09,2.27 -5.83,7.71 -8.7,7.32 -2.87,-0.39 -5,-1.16 -4.75,-4.09 0.25,-2.93 5.84,-6.12 5.84,-6.12 l 3.26,-2.43 c 0,0 -5.34,-2 -7.51,-7 -2.17,-5 8.33,-16.06 8.92,-16.69 v 0 c 4.8,-4.65 9.34,-5.34 9.34,-5.34 a 7.11,7.11 0 0 0 -4,0 c -0.72,-12.76 4.49,-25.22 4.49,-25.22 5.63,-1.49 6.47,-6.11 6.47,-6.11 0,0 -1,-4.87 -2.71,-7.24 -1.71,-2.37 -4.52,-0.71 -4.74,-0.59 2.12,-1.82 2.95,-7.92 2.95,-7.92 l -2.13,-3.7 c 3.66,3.14 8.94,8.47 9.95,13.71 1.58,8.19 3.26,27.45 -1.39,40.56 -4.65,13.11 -12.12,19.73 -12.12,19.73 z"
       style="fill:#263238"
       id="path312" />
    <path
       d="m 313.32,392.65 c 0,0 2.67,3.86 2.08,6.43 -0.59,2.57 -4.16,2.43 -5.25,4.7 -1.09,2.27 -5.83,7.71 -8.7,7.32 -2.87,-0.39 -5,-1.16 -4.75,-4.09 0.25,-2.93 5.84,-6.12 5.84,-6.12 l 3.26,-2.43 c 0,0 -5.34,-2 -7.51,-7 -2.17,-5 8.33,-16.06 8.92,-16.69 v 0 c 4.8,-4.65 9.34,-5.34 9.34,-5.34 a 7.11,7.11 0 0 0 -4,0 c -0.72,-12.76 4.49,-25.22 4.49,-25.22 5.63,-1.49 6.47,-6.11 6.47,-6.11 0,0 -1,-4.87 -2.71,-7.24 -1.71,-2.37 -4.52,-0.71 -4.74,-0.59 2.12,-1.82 2.95,-7.92 2.95,-7.92 l -2.13,-3.7 c 3.66,3.14 8.94,8.47 9.95,13.71 1.58,8.19 3.26,27.45 -1.39,40.56 -4.65,13.11 -12.12,19.73 -12.12,19.73 z"
       style="opacity:0.8;isolation:isolate;fill:#ffffff"
       id="path314" />
    <path
       d="m 308.64,310.51 c -1,-1.79 -8.51,-2.18 -10.19,-1.39 -1.68,0.79 -7.72,5.57 -6,6.79 1.72,1.22 3,4.29 8,3.2 5,-1.09 9.47,-6.23 8.19,-8.6 z"
       style="fill:#263238"
       id="path316" />
    <path
       d="m 308.64,310.51 c -1,-1.79 -8.51,-2.18 -10.19,-1.39 -1.68,0.79 -7.72,5.57 -6,6.79 1.72,1.22 3,4.29 8,3.2 5,-1.09 9.47,-6.23 8.19,-8.6 z"
       style="opacity:0.3;isolation:isolate;fill:#ffffff"
       id="path318" />
    <path
       d="m 318.23,315.91 c -2.68,-6 -11.87,-5.77 -15,-6.13 -3.13,-0.36 -5.74,5.67 -6.53,8.19 -0.79,2.52 -7.52,1.33 -6.73,6.09 0.79,4.76 3.17,6.53 6.93,7.91 3.76,1.38 28.25,-0.46 21.33,-16.06 z"
       style="fill:#263238"
       id="path320" />
    <path
       d="m 314.7,328.75 c -5.93,3.72 -15.58,4.05 -17.83,3.22 h -0.12 c -3.69,-1.38 -6,-3.17 -6.81,-7.87 -0.81,-4.7 5.94,-3.56 6.73,-6.09 0.79,-2.53 3.36,-8.55 6.53,-8.19 3.17,0.36 12.35,0.1 15,6.13 2.8,6.24 0.5,10.29 -3.5,12.8 z"
       style="opacity:0.8;isolation:isolate;fill:#ffffff"
       id="path322" />
    <polygon
       points="291.33,324.26 291.33,321.78 293.8,322.28 "
       style="fill:#d4827d"
       id="polygon324" />
    <path
       d="m 305.51,320.1 c 0,0.69 -0.38,1.24 -0.84,1.24 -0.46,0 -0.84,-0.55 -0.84,-1.24 0,-0.69 0.37,-1.23 0.84,-1.23 0.47,0 0.84,0.55 0.84,1.23 z"
       style="fill:#263238"
       id="path326" />
    <path
       d="m 298.78,318.87 c 0,0.68 -0.37,1.23 -0.84,1.23 -0.47,0 -0.84,-0.55 -0.84,-1.23 0,-0.68 0.38,-1.24 0.84,-1.24 0.46,0 0.84,0.55 0.84,1.24 z"
       style="fill:#263238"
       id="path328" />
    <path
       d="m 308.64,309.77 c -1.95,0.14 -1.29,12.11 0,15 1.29,2.89 12.16,-0.79 12.95,-3.26 0.79,-2.47 -0.49,-12.69 -12.95,-11.74 z"
       style="fill:#263238"
       id="path330" />
    <path
       d="m 308.64,309.77 c -1.95,0.14 -1.29,12.11 0,15 1.29,2.89 12.16,-0.79 12.95,-3.26 0.79,-2.47 -0.49,-12.69 -12.95,-11.74 z"
       style="opacity:0.4;isolation:isolate;fill:#ffffff"
       id="path332" />
    <path
       d="m 379,290.15 c -5.14,-0.45 -15.63,33.07 -19.57,36.74 -3.94,3.67 -37.27,13 -37.27,13 a 26.2,26.2 0 0 0 -4.72,0 c -1.84,0.27 -10.24,2.64 -10.24,2.64 0,0 3.06,5.87 6.3,6.72 4.11,1.07 10.89,-3.49 12.6,-5.16 0,0 33.06,-3.75 40.28,-8.5 7.22,-4.75 14.91,-27.3 16.84,-33.87 1.93,-6.57 -1.14,-11.31 -4.22,-11.57 z"
       style="fill:#eec1bb"
       id="path334" />
    <path
       d="m 314.87,334.38 c 0,0 -9.27,-3.24 -12.12,-0.91 -2.85,2.33 -2.47,10.29 -1.21,11.56 1.26,1.27 5,2.24 5,0.51 0,-1.73 0.13,-6.77 0.13,-6.77 0,0 4.88,5.22 10,5.64 5.12,0.42 9.13,-6.72 7.36,-10.86 -1.77,-4.14 -5.8,-2.24 -9.16,0.83 z"
       style="fill:#263238"
       id="path336" />
    <path
       d="m 314.87,334.38 c 0,0 -9.27,-3.24 -12.12,-0.91 -2.85,2.33 -2.47,10.29 -1.21,11.56 1.26,1.27 5,2.24 5,0.51 0,-1.73 0.13,-6.77 0.13,-6.77 0,0 4.88,5.22 10,5.64 5.12,0.42 9.13,-6.72 7.36,-10.86 -1.77,-4.14 -5.8,-2.24 -9.16,0.83 z"
       style="opacity:0.8;isolation:isolate;fill:#ffffff"
       id="path338" />
  </g>
  <g
     id="freepik--character-1--inject-92"
     transform="translate(-3.0712531,-101.35135)">
    <g
       id="freepik--group--inject-92">
      <polygon
         points="102.36,390.43 101.53,399.31 122.04,401.99 122.88,393.09 "
         style="fill:#e4897b"
         id="polygon341" />
      <path
         d="m 102.44,400.64 1,-10.79 a 0.8,0.8 0 0 0 -0.54,-0.82 l -7.75,-2.49 a 1.32,1.32 0 0 0 -1.65,0.86 1,1 0 0 0 0,0.29 c -0.28,3.5 -0.3,6.06 -0.71,10.44 -0.26,2.71 -1.31,10.83 -1.66,14.56 -0.35,3.73 3.29,4.56 3.77,3.06 2.14,-6.7 4.69,-11.66 6.86,-13.67 a 2.12,2.12 0 0 0 0.68,-1.44 z"
         style="fill:#263238"
         id="path343" />
      <path
         d="m 101.15,401.14 a 0.2,0.2 0 0 1 0.2,-0.14 0.18,0.18 0 0 1 0.19,0.12 c 0.17,0.33 1.67,3.37 1.07,4.3 a 0.64,0.64 0 0 1 -0.63,0.31 1.23,1.23 0 0 1 -1.08,-0.55 2.66,2.66 0 0 1 -0.3,-1.75 10.62,10.62 0 0 1 0.55,-2.29 z m 0.24,0.63 a 4.32,4.32 0 0 0 -0.14,3.18 0.87,0.87 0 0 0 0.73,0.36 c 0.17,0 0.25,-0.06 0.26,-0.11 a 0.53,0.53 0 0 0 0.08,-0.27 8.8,8.8 0 0 0 -0.93,-3.16 z"
         style="fill:#407bff"
         id="path345" />
      <path
         d="m 101.11,401.08 a 0.24,0.24 0 0 1 0.2,-0.09 c 0.13,0 2.66,0.48 3.4,1.59 a 1.15,1.15 0 0 1 0.19,0.92 0.68,0.68 0 0 1 -0.62,0.62 c -1,0.09 -2.74,-1.86 -3.16,-2.83 v -0.1 a 0.2,0.2 0 0 1 -0.01,-0.11 z m 3.33,1.75 a 5,5 0 0 0 -2.69,-1.32 c 0.61,1 2,2.25 2.57,2.19 0.06,0 0.22,0 0.24,-0.28 v -0.1 a 0.7,0.7 0 0 0 -0.12,-0.49 z"
         style="fill:#407bff"
         id="path347" />
      <polygon
         points="122.86,393.09 122.03,401.98 111.45,400.6 112.29,391.71 "
         style="opacity:0.2;isolation:isolate"
         id="polygon349" />
      <polygon
         points="200.24,408.57 209.92,410.62 220.27,393.6 210.59,391.56 "
         style="fill:#e4897b"
         id="polygon351" />
      <path
         d="M 211.88,406.52 H 201 a 0.77,0.77 0 0 0 -0.76,0.61 l -1.76,7.95 a 1.31,1.31 0 0 0 1,1.56 h 0.29 c 3.51,-0.06 6.06,-0.28 10.47,-0.28 2.71,0 10.9,0.29 14.64,0.29 3.74,0 4.24,-3.7 2.7,-4 -6.87,-1.5 -12,-3.58 -14.25,-5.56 a 2.19,2.19 0 0 0 -1.45,-0.57 z"
         style="fill:#263238"
         id="path353" />
      <path
         d="m 212.49,407.75 a 0.21,0.21 0 0 1 -0.16,-0.18 0.2,0.2 0 0 1 0.1,-0.2 c 0.32,-0.21 3.21,-2 4.19,-1.47 a 0.65,0.65 0 0 1 0.37,0.59 1.25,1.25 0 0 1 -0.45,1.14 2.65,2.65 0 0 1 -1.71,0.45 10.32,10.32 0 0 1 -2.34,-0.33 z m 0.61,-0.29 a 4.37,4.37 0 0 0 3.18,-0.16 0.88,0.88 0 0 0 0.29,-0.76 c 0,-0.17 -0.08,-0.25 -0.14,-0.25 a 0.63,0.63 0 0 0 -0.27,-0.06 8.68,8.68 0 0 0 -3.06,1.23 z"
         style="fill:#407bff"
         id="path355" />
      <path
         d="m 212.43,407.8 a 0.24,0.24 0 0 1 -0.1,-0.19 c 0,-0.13 0.23,-2.69 1.26,-3.53 a 1.14,1.14 0 0 1 0.9,-0.28 0.7,0.7 0 0 1 0.68,0.56 c 0.18,0.94 -1.6,2.91 -2.52,3.41 h -0.1 a 0.24,0.24 0 0 1 -0.12,0.03 z m 1.43,-3.47 a 5,5 0 0 0 -1.05,2.79 c 0.92,-0.69 2.05,-2.18 1.94,-2.76 0,-0.06 0,-0.21 -0.31,-0.21 h -0.1 a 0.74,0.74 0 0 0 -0.48,0.18 z"
         style="fill:#407bff"
         id="path357" />
      <polygon
         points="210.59,391.56 220.27,393.6 214.93,402.38 205.24,400.33 "
         style="opacity:0.2;isolation:isolate"
         id="polygon359" />
      <path
         d="m 173.59,364.87 c 0.52,0 1.06,-0.05 1.6,-0.1 11,-0.91 22.44,-3.76 31.29,-6.42 9.12,-2.75 15.43,-5.31 15.43,-5.31 2.09,12.1 -17.55,44.59 -17.55,44.59 l 16,1 c 0,0 44.84,-52.22 25.74,-72.83 -14.27,-15.39 -53,1.32 -53,1.32 l -53,0.38 c 0,0 -3.82,39.36 33.49,37.37 z"
         style="fill:#407bff"
         id="path361" />
      <path
         d="m 173.59,364.87 c 0.52,0 1.06,-0.05 1.6,-0.1 11,-0.91 22.44,-3.76 31.29,-6.42 9.12,-2.75 15.43,-5.31 15.43,-5.31 2.09,12.1 -17.55,44.59 -17.55,44.59 l 16,1 c 0,0 44.84,-52.22 25.74,-72.83 -14.27,-15.39 -53,1.32 -53,1.32 l -53,0.38 c 0,0 -3.82,39.36 33.49,37.37 z"
         style="opacity:0.2;isolation:isolate"
         id="path363" />
      <path
         d="m 173.59,364.87 c 0.52,0 1.06,-0.05 1.6,-0.1 11,-0.91 22.44,-3.76 31.29,-6.42 -15.53,-2.85 -30.35,-14 -30.35,-14 z"
         style="opacity:0.2;isolation:isolate"
         id="path365" />
      <path
         d="m 178.83,333.27 c 3.26,4.82 17.14,63.85 -2.48,77.75 -14.41,10.21 -61.55,-6.71 -61.55,-6.71 l 1,-14.78 c 0,0 38,5.84 42.54,1.89 4.54,-3.95 -16.09,-39.91 -17.18,-49.57 -1.09,-9.66 37.67,-8.58 37.67,-8.58 z"
         style="fill:#407bff"
         id="path367" />
      <path
         d="m 178.83,333.27 c 3.26,4.82 17.14,63.85 -2.48,77.75 -14.41,10.21 -61.55,-6.71 -61.55,-6.71 l 1,-14.78 c 0,0 38,5.84 42.54,1.89 4.54,-3.95 -16.09,-39.91 -17.18,-49.57 -1.09,-9.66 37.67,-8.58 37.67,-8.58 z"
         style="opacity:0.2;isolation:isolate"
         id="path369" />
      <path
         d="m 278.72,331.21 c -11.86,-3.45 -39.7,-12 -43.56,-17.6 -4.92,-7.09 -14.76,-41.36 -14.76,-41.36 l -14.09,11.06 c 0,0 16.24,33.4 17.83,37.38 2.31,5.78 38.91,15.13 51.43,18.18 1,-1.52 2.09,-3 3.15,-4.52 z"
         style="fill:#dd857c"
         id="path371" />
      <path
         d="m 218.27,265.44 c 6.3,7.56 11.22,23.56 11.22,23.56 a 26.8,26.8 0 0 1 -19.28,10 c 0,0 -3.37,-9.16 -11.72,-10 L 207,268.28 Z"
         style="fill:#263238"
         id="path373" />
      <path
         d="m 229.5,289 a 26.83,26.83 0 0 1 -19.29,10 17,17 0 0 0 -1,-2 c -1.49,-2.67 -4.74,-7.12 -10.27,-7.9 a 2.62,2.62 0 0 0 -0.5,-0.07 l 8.56,-20.75 11.24,-2.84 a 36.07,36.07 0 0 1 3.61,5.41 l 0.31,0.56 v 0 a 92,92 0 0 1 4.5,9.77 c 0.08,0.2 0.16,0.39 0.23,0.58 1.65,4.13 2.61,7.24 2.61,7.24 z"
         style="opacity:0.1;isolation:isolate;fill:#ffffff"
         id="path375" />
      <path
         d="m 199,289.06 c 5.53,0.78 8.78,5.23 10.27,7.9 0.35,-7.54 -3.67,-18.27 -3.67,-18.27 z"
         style="opacity:0.2;isolation:isolate"
         id="path377" />
      <polygon
         points="209.27,298.99 229.5,287.38 230.9,291.08 211.07,302.42 "
         style="fill:#407bff"
         id="polygon379" />
      <path
         d="m 226.93,281.76 a 3.43,3.43 0 0 1 -1.62,1.44 c -2.32,0.95 -5.32,-1 -6.7,-4.34 -1.38,-3.34 -0.62,-6.84 1.7,-7.79 a 3.23,3.23 0 0 1 1.57,-0.22 l 0.31,0.56 v 0 a 92,92 0 0 1 4.5,9.77 c 0.09,0.2 0.17,0.39 0.24,0.58 z"
         style="opacity:0.2;isolation:isolate"
         id="path381" />
      <path
         d="m 226.7,281.18 a 3.05,3.05 0 0 1 -1.48,1.34 c -2.08,0.86 -4.78,-0.89 -6,-3.9 -1.22,-3.01 -0.56,-6.15 1.52,-7 a 3.06,3.06 0 0 1 1.47,-0.2 v 0 a 92,92 0 0 1 4.49,9.76 z"
         style="opacity:0.3;isolation:isolate;fill:#ffffff"
         id="path383" />
      <polygon
         points="219.65,400.53 203.66,397.97 205.19,393.62 222.59,397.25 "
         style="fill:#407bff"
         id="polygon385" />
      <path
         d="m 272.06,337.83 c -1.63,-2.2 2.78,-7.53 2.78,-7.53 1.42,0 6.41,0.8 11.41,1.63 5,0.83 4,2.44 2.12,5.42 -1.88,2.98 -3.21,6.33 -6.2,6.48 z"
         style="fill:#dd857c"
         id="path387" />
      <polygon
         points="117.84,388.4 116.65,406.24 112.18,405.11 114.2,387.45 "
         style="fill:#407bff"
         id="polygon389" />
      <path
         d="m 140.18,327.5 52.61,3.78 c 0,0 8.16,-49.94 25.48,-65.84 a 42.69,42.69 0 0 0 -8.94,-7.36 54,54 0 0 0 -23.79,-8.23 61.85,61.85 0 0 0 -19.25,1.15 c 0,0 -23.84,27.69 -26.11,76.5 z"
         style="fill:#263238"
         id="path391" />
      <g
         style="opacity:0.2;isolation:isolate"
         id="g395">
        <path
           d="m 140.18,327.5 52.61,3.78 c 0,0 8.16,-49.94 25.48,-65.84 a 42.69,42.69 0 0 0 -8.94,-7.36 54,54 0 0 0 -23.79,-8.23 61.85,61.85 0 0 0 -19.25,1.15 c 0,0 -23.84,27.69 -26.11,76.5 z"
           style="fill:#ffffff"
           id="path393" />
      </g>
      <path
         d="m 198.67,260.09 c 0,0 -18.57,38.7 -18.54,57.54 A 367.38,367.38 0 0 1 201,260.09 Z"
         style="fill:#407bff"
         id="path397" />
      <polygon
         points="196.95,277.45 205.58,278.69 204.13,280.98 196.43,279.34 "
         style="fill:#407bff"
         id="polygon399" />
      <path
         d="m 186.45,250.81 c -1.62,5.81 15.13,14 21,8.17 -3.17,-2.39 -4,-4.89 -3.6,-7.33 a 11.24,11.24 0 0 1 1.73,-4.14 21.91,21.91 0 0 1 1.45,-2.06 l -7.12,-14.76 c -1.47,6.5 -4.76,21.16 -13.46,20.12 z"
         style="fill:#e4897b"
         id="path401" />
      <path
         d="m 199.72,237.59 c -3.21,7.24 1.52,12.19 4.13,14.06 a 11.24,11.24 0 0 1 1.73,-4.14 z"
         style="opacity:0.2;isolation:isolate"
         id="path403" />
      <path
         d="m 176.9,270.68 c 0,0 9.77,29.62 16.41,36.34 5.82,5.88 34.86,19.47 34.86,19.47 l -1.95,6.51 c 0,0 -36.43,-12.19 -42.84,-18.28 -7.72,-7.34 -18.88,-34.76 -18.88,-34.76 z"
         style="fill:#e4897b"
         id="path405" />
      <path
         d="m 226.5,334.8 c -1.41,-1 -4,-6.09 -4,-6.09 l 5.06,-2.33 c 1.26,0.56 11.48,0.15 13,0.95 1.7,0.88 -1.72,7.72 -2.53,8.9 z"
         style="fill:#e4897b"
         id="path407" />
      <path
         d="m 166.3,251 c 8.89,-3.76 17.4,29.75 17.4,29.75 l -15.89,9.65 c 0,0 -24.22,-29.77 -1.51,-39.4 z"
         style="fill:#263238"
         id="path409" />
      <path
         d="m 166.3,251 c 8.89,-3.76 17.4,29.75 17.4,29.75 l -15.89,9.65 c 0,0 -24.22,-29.77 -1.51,-39.4 z"
         style="opacity:0.1;isolation:isolate;fill:#ffffff"
         id="path411" />
      <path
         d="m 171.72,267.84 c 0,3.39 -2.39,6.15 -5.35,6.15 -2.96,0 -5.34,-2.76 -5.34,-6.15 0,-3.39 2.39,-6.16 5.34,-6.16 2.95,0 5.35,2.76 5.35,6.16 z"
         style="opacity:0.2;isolation:isolate"
         id="path413" />
      <path
         d="m 171,267.84 c 0,2.93 -2.07,5.3 -4.62,5.3 -2.55,0 -4.61,-2.37 -4.61,-5.3 0,-2.93 2.07,-5.31 4.61,-5.31 2.54,0 4.62,2.37 4.62,5.31 z"
         style="opacity:0.3;isolation:isolate;fill:#ffffff"
         id="path415" />
      <polygon
         points="166.38,290.42 183.7,279.34 184.91,282.77 168.26,293.45 "
         style="fill:#407bff"
         id="polygon417" />
      <path
         d="m 192.79,247 c 0.5,5.8 7,13.22 7,13.22 4.32,-2.8 4,-8.57 4,-8.57 l 4.37,7 c 0,0 -1.3,7.61 -5.1,9.2 l -3.36,-6 -7.8,5.15 c 0,0 -9.49,-10.79 -6.36,-17.1 z"
         style="fill:#407bff"
         id="path419" />
      <path
         d="m 192.79,247 c 0.5,5.8 7,13.22 7,13.22 4.32,-2.8 4,-8.57 4,-8.57 l 4.37,7 c 0,0 -1.3,7.61 -5.1,9.2 l -3.36,-6 -7.8,5.15 c 0,0 -9.49,-10.79 -6.36,-17.1 z"
         style="opacity:0.1;isolation:isolate;fill:#ffffff"
         id="path421" />
      <path
         d="m 228.32,225.51 c 0,0 -2.06,10 -9.81,12.22 -7.75,2.22 0.11,-19.3 0.11,-19.3 z"
         style="fill:#263238"
         id="path423" />
      <path
         d="m 197.35,240.39 a 11.17,11.17 0 0 0 10.55,8.47 12.39,12.39 0 0 0 8.65,-3 11.52,11.52 0 0 0 1,-0.9 c 5.6,-5.95 11.08,-17.95 5.31,-25.31 a 12.1,12.1 0 0 0 -20.49,2.21 c -3.97,7.92 -6.66,12.39 -5.02,18.53 z"
         style="fill:#e4897b"
         id="path425" />
      <path
         d="m 212.75,230.68 a 1.11,1.11 0 0 0 0.09,1.55 c 0.42,0.24 1,-0.09 1.39,-0.7 0.39,-0.61 0.31,-1.33 -0.09,-1.56 -0.4,-0.23 -1.03,0.08 -1.39,0.71 z"
         style="fill:#263238"
         id="path427" />
      <path
         d="m 219.81,234.73 a 1.11,1.11 0 0 0 0.09,1.55 c 0.41,0.23 1,-0.09 1.39,-0.71 0.39,-0.62 0.31,-1.32 -0.09,-1.55 -0.4,-0.23 -1.05,0.11 -1.39,0.71 z"
         style="fill:#263238"
         id="path429" />
      <path
         d="m 217.39,233.75 a 25.61,25.61 0 0 0 -0.08,7.05 4.17,4.17 0 0 1 -3.32,-1.16 z"
         style="fill:#de5753"
         id="path431" />
      <path
         d="m 211.86,227.14 a 0.44,0.44 0 0 0 0.44,0.06 3.41,3.41 0 0 1 3,0.12 0.42157443,0.42157443 0 1 0 0.47,-0.7 v 0 a 4.17,4.17 0 0 0 -3.84,-0.2 0.42,0.42 0 0 0 -0.24,0.55 v 0 a 1,1 0 0 0 0.17,0.17 z"
         style="fill:#263238"
         id="path433" />
      <path
         d="m 211.12,242.29 v 0 a 6.46,6.46 0 0 1 -4,-4.49 0.23,0.23 0 0 1 0.18,-0.26 0.22,0.22 0 0 1 0.26,0.16 v 0 a 6.22,6.22 0 0 0 3.69,4.16 0.21,0.21 0 0 1 0.13,0.27 v 0 a 0.21,0.21 0 0 1 -0.28,0.13 z"
         style="fill:#263238"
         id="path435" />
      <path
         d="m 224.23,234 a 0.49,0.49 0 0 0 0.21,0.14 0.41,0.41 0 0 0 0.45,-0.39 v 0 a 4.22,4.22 0 0 0 -1.46,-3.57 0.43,0.43 0 0 0 -0.59,0.08 v 0 a 0.41,0.41 0 0 0 0.08,0.58 v 0 a 3.41,3.41 0 0 1 1.11,2.85 0.46,0.46 0 0 0 0.2,0.31 z"
         style="fill:#263238"
         id="path437" />
      <path
         d="m 197.23,226.51 c 1.75,-7.82 4.55,-13.54 7.35,-14.84 2.8,-1.3 9.75,8.3 9.75,8.3 -1.93,-1.54 -4.94,-0.67 -5.2,1.83 -0.37,3.49 -4.34,7.17 -7.5,7.83 0,0 0.57,-1.3 -0.65,-1.54 -1.22,-0.24 -4.29,6.49 -3.81,10.69 0,0 -1.7,-4.45 0.06,-12.27 z"
         style="fill:#263238"
         id="path439" />
      <path
         d="m 195.38,226.24 a 8.44,8.44 0 0 0 2.07,6.09 c 2,2.2 4.53,0.83 5.32,-1.85 0.69,-2.39 0.54,-6.48 -2.09,-7.68 -2.63,-1.2 -5.09,0.71 -5.3,3.44 z"
         style="fill:#e4897b"
         id="path441" />
      <path
         d="m 214.33,220 c 0,0 5.8,9 12.37,6.08 l 1.62,-0.54 c 0,0 5.09,-3.27 3,-6.3 -2.09,-3.03 -4.6,-2.9 -4.6,-2.9 0,0 -4.8,-7.78 -13.22,-8.44 -8.42,-0.66 -13.19,3.31 -14.24,11.74 -0.02,-0.03 11.37,-3.76 15.07,0.36 z"
         style="fill:#263238"
         id="path443" />
      <path
         d="m 204.07,228.16 a 46.45,46.45 0 0 0 -0.65,7 c 0,0 4,-0.12 5.33,0.67 1.33,0.79 2.32,3.63 2.32,3.63 l -0.94,0.86 c 0,0 -1.28,-3.43 -2.68,-3.56 -1.4,-0.13 -3.71,2.77 -2.86,5.14 0.85,2.37 3.63,0.73 3.63,0.73 l 2,1.25 a 1.37,1.37 0 0 0 -0.46,2 c 0.79,1.2 3.3,-0.45 4.19,-2.23 0.89,-1.78 -3.2,-2.78 -3.2,-2.78 l 0.92,-0.89 c 0,0 4.57,0.26 4.95,2.88 a 9.52,9.52 0 0 0 4.87,-3.31 c 0,0 -3.2,8.92 -6.44,9.64 0,0 -2.12,3.76 -6.21,3 a 9.2,9.2 0 0 1 -5.76,-3.24 c 0,0 -0.81,0.85 -3,-1.25 -2.19,-2.1 -0.88,-6.26 -0.88,-6.26 a 2.5,2.5 0 0 1 -1.31,-1.78 c -0.39,-1.45 0.39,-4.65 3.86,-7.27 a 7.13,7.13 0 0 0 1.31,-3.87 z"
         style="fill:#263238"
         id="path445" />
      <path
         d="m 216.32,233.94 a 2.33,2.33 0 1 1 -2.33,-2.32 2.33,2.33 0 0 1 2.33,2.32 z"
         style="fill:none;stroke:#407bff;stroke-width:0.5px;stroke-miterlimit:10"
         id="path447" />
      <path
         d="m 222.87,237 a 2.33,2.33 0 1 1 -2.33,-2.33 2.33,2.33 0 0 1 2.33,2.33 z"
         style="fill:none;stroke:#407bff;stroke-width:0.5px;stroke-miterlimit:10"
         id="path449" />
      <path
         d="m 216.12,234.88 c 0,0 1.91,-0.42 2.28,1.2"
         style="fill:none;stroke:#407bff;stroke-width:0.5px;stroke-miterlimit:10"
         id="path451" />
      <path
         d="m 212,232.74 -0.93,-0.43 c 0,0 -7,-8 -8.19,-8.09"
         style="fill:none;stroke:#407bff;stroke-width:0.5px;stroke-miterlimit:10"
         id="path453" />
      <path
         d="m 292.74,335 a 2.21,2.21 0 0 0 0.42,-2.76 2.19,2.19 0 0 0 -2,-1.09 2.22,2.22 0 0 0 -2.09,2.85 v 0 l -8.21,2.46 v 0 a 2.23,2.23 0 0 0 -3.31,-1.25 2.22,2.22 0 0 0 0.83,4.06 2.22,2.22 0 1 0 3.62,1 v 0 l 8.21,-2.46 v 0 a 2.22,2.22 0 1 0 2.48,-2.82 z"
         style="fill:#407bff"
         id="path455" />
    </g>
  </g>
</svg>
