<?xml version="1.0" encoding="UTF-8" standalone="no"?>
<svg
   viewBox="0 0 500 300"
   version="1.1"
   id="svg723"
   sodipodi:docname="cat.svg"
   inkscape:version="1.2.2 (732a01da63, 2022-12-09)"
   width="500"
   height="300"
   xmlns:inkscape="http://www.inkscape.org/namespaces/inkscape"
   xmlns:sodipodi="http://sodipodi.sourceforge.net/DTD/sodipodi-0.dtd"
   xmlns="http://www.w3.org/2000/svg"
   xmlns:svg="http://www.w3.org/2000/svg">
  <defs
     id="defs727" />
  <sodipodi:namedview
     id="namedview725"
     pagecolor="#ffffff"
     bordercolor="#000000"
     borderopacity="0.25"
     inkscape:showpageshadow="2"
     inkscape:pageopacity="0.0"
     inkscape:pagecheckerboard="0"
     inkscape:deskcolor="#d1d1d1"
     showgrid="false"
     inkscape:zoom="1.57"
     inkscape:cx="249.68153"
     inkscape:cy="187.57962"
     inkscape:window-width="1920"
     inkscape:window-height="1001"
     inkscape:window-x="-9"
     inkscape:window-y="-9"
     inkscape:window-maximized="1"
     inkscape:current-layer="svg723"
     showguides="true">
    <sodipodi:guide
       position="-322.29299,-73.24841"
       orientation="1,0"
       id="guide1313"
       inkscape:locked="false" />
  </sodipodi:namedview>
  <g
     id="freepik--background-complete--inject-29"
     transform="matrix(0.65095541,0,0,0.70768952,78.980894,-11.311456)">
    <rect
       y="382.39999"
       width="500"
       height="0.25"
       style="fill:#ebebeb"
       id="rect369"
       x="0" />
    <rect
       x="416.78"
       y="398.48999"
       width="33.119999"
       height="0.25"
       style="fill:#ebebeb"
       id="rect371" />
    <rect
       x="322.53"
       y="401.20999"
       width="8.6899996"
       height="0.25"
       style="fill:#ebebeb"
       id="rect373" />
    <rect
       x="396.59"
       y="389.20999"
       width="19.190001"
       height="0.25"
       style="fill:#ebebeb"
       id="rect375" />
    <rect
       x="52.459999"
       y="390.89001"
       width="43.189999"
       height="0.25"
       style="fill:#ebebeb"
       id="rect377" />
    <rect
       x="104.56"
       y="390.89001"
       width="6.3299999"
       height="0.25"
       style="fill:#ebebeb"
       id="rect379" />
    <rect
       x="131.47"
       y="395.10999"
       width="93.68"
       height="0.25"
       style="fill:#ebebeb"
       id="rect381" />
    <path
       d="M 237,337.8 H 43.91 a 5.71,5.71 0 0 1 -5.7,-5.71 V 60.66 A 5.71,5.71 0 0 1 43.91,55 H 237 a 5.71,5.71 0 0 1 5.71,5.71 V 332.09 A 5.71,5.71 0 0 1 237,337.8 Z M 43.91,55.2 a 5.46,5.46 0 0 0 -5.45,5.46 v 271.43 a 5.46,5.46 0 0 0 5.45,5.46 H 237 a 5.47,5.47 0 0 0 5.46,-5.46 V 60.66 A 5.47,5.47 0 0 0 237,55.2 Z"
       style="fill:#ebebeb"
       id="path383" />
    <path
       d="m 453.31,337.8 h -193.1 a 5.72,5.72 0 0 1 -5.71,-5.71 V 60.66 A 5.72,5.72 0 0 1 260.21,55 h 193.1 a 5.71,5.71 0 0 1 5.69,5.66 v 271.43 a 5.71,5.71 0 0 1 -5.69,5.71 z M 260.21,55.2 a 5.47,5.47 0 0 0 -5.46,5.46 v 271.43 a 5.47,5.47 0 0 0 5.46,5.46 h 193.1 a 5.47,5.47 0 0 0 5.46,-5.46 V 60.66 a 5.47,5.47 0 0 0 -5.46,-5.46 z"
       style="fill:#ebebeb"
       id="path385" />
    <polygon
       points="412.88,297.46 412.88,136.23 369.81,111.17 336.62,111.17 292.82,135.04 292.82,297.46 "
       style="fill:#e0e0e0"
       id="polygon387" />
    <path
       d="m 291.59,136.23 1.23,-1.19 a 85.35,85.35 0 0 1 59.42,-23.87 v 0 A 85.34,85.34 0 0 1 411.65,135 l 1.23,1.19 V 297.46 H 291.59 Z m 113.25,3.45 a 77.86,77.86 0 0 0 -105.21,0 v 149.74 h 105.21 z"
       style="fill:#fafafa"
       id="path389" />
    <polygon
       points="406.36,230.45 406.36,236.48 355.25,236.48 355.25,290.39 349.22,290.39 349.22,236.48 298.11,236.48 298.11,230.45 349.22,230.45 349.22,175.32 298.11,175.32 298.11,169.28 349.22,169.28 349.22,118.17 355.25,118.17 355.25,169.28 406.36,169.28 406.36,175.32 355.25,175.32 355.25,230.45 "
       style="fill:#f0f0f0"
       id="polygon391" />
    <path
       d="m 287.56,134.59 1.18,-1.18 a 89.9,89.9 0 0 1 127,0 l 1.18,1.18 v 166.9 H 287.56 Z m 121.3,3.35 a 81.85,81.85 0 0 0 -113.25,0 v 155.5 h 113.25 z"
       style="fill:#f0f0f0"
       id="path393" />
    <rect
       x="165.75999"
       y="181.5"
       width="3.7"
       height="58.669998"
       style="fill:#e0e0e0"
       id="rect395" />
    <ellipse
       cx="167.61"
       cy="253.33"
       rx="36.5"
       ry="26.559999"
       style="fill:#e0e0e0"
       id="ellipse397" />
    <polygon
       points="87.41,381.37 100.09,381.37 100.09,303.15 235.14,303.15 235.14,381.37 247.82,381.37 247.82,275.93 87.41,275.93 "
       style="fill:#e0e0e0"
       id="polygon399" />
    <rect
       x="83.089996"
       y="269.62"
       width="169.03999"
       height="23.040001"
       style="fill:#f0f0f0"
       id="rect401" />
    <rect
       x="142.28999"
       y="224.96001"
       width="50.630001"
       height="9.5100002"
       style="fill:#e0e0e0"
       id="rect403" />
    <polygon
       points="118.33,216.17 137.9,145.45 197.32,145.45 216.89,216.17 "
       style="fill:#f0f0f0"
       id="polygon405" />
  </g>
  <g
     id="freepik--Shadow--inject-29"
     transform="translate(-8.9171975,-139.49045)">
    <ellipse
       id="freepik--path--inject-29"
       cx="250"
       cy="416.23999"
       rx="193.89"
       ry="11.32"
       style="fill:#f5f5f5" />
  </g>
  <g
     id="freepik--Plant--inject-29"
     transform="translate(-8.9171975,-139.49045)">
    <path
       d="m 370.13,370.25 a 0.83,0.83 0 0 1 -0.47,-0.14 c -9.3,-6.35 -20,-31.84 -20.4,-32.93 a 0.82,0.82 0 0 1 0.45,-1.08 0.83,0.83 0 0 1 1.09,0.45 c 0.1,0.25 10.44,25 19.21,31.75 2.32,-2.5 12.21,-12.16 29.95,-16 a 0.83357663,0.83357663 0 1 1 0.35,1.63 c -19.43,4.17 -29.44,15.88 -29.54,16 a 0.84,0.84 0 0 1 -0.64,0.32 z"
       style="fill:#263238"
       id="path410" />
    <path
       d="m 373.83,348.93 c 0,0 -2.39,-17.57 -13.63,-19.49 -11.24,-1.92 -7.85,-10.42 -10.78,-13.71 -2.93,-3.29 -10.58,6.41 -4,15.81 6.58,9.4 1.19,6.45 4,15.19 2.81,8.74 25.44,16.77 24.41,2.2 z"
       style="fill:#407bff"
       id="path412" />
    <path
       d="m 373.83,348.93 c 0,0 -2.39,-17.57 -13.63,-19.49 -11.24,-1.92 -7.85,-10.42 -10.78,-13.71 -2.93,-3.29 -10.58,6.41 -4,15.81 6.58,9.4 1.19,6.45 4,15.19 2.81,8.74 25.44,16.77 24.41,2.2 z"
       style="opacity:0.2;isolation:isolate;fill:#ffffff"
       id="path414" />
    <path
       d="m 371.45,361.34 a 0.62,0.62 0 0 1 -0.62,-0.5 155,155 0 0 0 -4.4,-15.4 c -3.61,-11.13 -7.34,-22.65 -4.79,-35 2.09,-10.14 7.2,-19.47 12.15,-28.49 q 1.24,-2.27 2.46,-4.52 c 0.66,-1.23 1.33,-2.46 2,-3.69 4.54,-8.4 9.24,-17.09 12.55,-26.16 4.14,-11.32 4.72,-21 1.77,-29.7 a 0.64,0.64 0 0 1 1.21,-0.41 c 3,8.95 2.46,18.94 -1.78,30.55 -3.35,9.16 -8.07,17.88 -12.64,26.32 l -2,3.69 c -0.81,1.51 -1.64,3 -2.47,4.53 -4.9,8.94 -10,18.18 -12,28.13 -2.48,12 1,22.86 4.76,34.34 a 154.48,154.48 0 0 1 4.43,15.53 0.64,0.64 0 0 1 -0.49,0.75 z"
       style="fill:#263238"
       id="path416" />
    <path
       d="m 396,226.92 c 0,0 7.66,-21.31 -8.41,-22.2 -16.07,-0.89 1.11,19.71 8.41,22.2 z"
       style="fill:#407bff"
       id="path418" />
    <path
       d="m 381.58,243.07 c 0,0 -4.26,-19.68 -15.8,-15.87 -11.54,3.81 4.41,15.93 15.8,15.87 z"
       style="fill:#407bff"
       id="path420" />
    <path
       d="m 400.91,245.29 c 0,0 -1.3,-15.65 10.83,-15.63 12.13,0.02 6.36,13.58 -10.83,15.63 z"
       style="fill:#407bff"
       id="path422" />
    <path
       d="m 392,276.91 c 0,0 16.66,-14.06 22.22,-3.11 5.56,10.95 -12.64,12.7 -22.22,3.11 z"
       style="fill:#407bff"
       id="path424" />
    <path
       d="m 363.28,273.55 c 0,0 -2.41,-24.16 -15.75,-17 -13.34,7.16 4.23,19.1 15.75,17 z"
       style="fill:#407bff"
       id="path426" />
    <path
       d="m 350.78,307.72 c 0,0 10.36,-24.07 -7.74,-21.82 -18.1,2.25 -4.82,15.57 7.74,21.82 z"
       style="fill:#407bff"
       id="path428" />
    <path
       d="m 378.2,317.15 c 0,0 15.71,-17.52 27.18,-11.52 11.47,6 1.49,23.58 -27.18,11.52 z"
       style="fill:#407bff"
       id="path430" />
    <g
       style="opacity:0.2;isolation:isolate"
       id="g446">
      <path
         d="m 396,226.92 c 0,0 7.66,-21.31 -8.41,-22.2 -16.07,-0.89 1.11,19.71 8.41,22.2 z"
         style="fill:#ffffff"
         id="path432" />
      <path
         d="m 381.58,243.07 c 0,0 -4.26,-19.68 -15.8,-15.87 -11.54,3.81 4.41,15.93 15.8,15.87 z"
         style="fill:#ffffff"
         id="path434" />
      <path
         d="m 400.91,245.29 c 0,0 -1.3,-15.65 10.83,-15.63 12.13,0.02 6.36,13.58 -10.83,15.63 z"
         style="fill:#ffffff"
         id="path436" />
      <path
         d="m 392,276.91 c 0,0 16.66,-14.06 22.22,-3.11 5.56,10.95 -12.64,12.7 -22.22,3.11 z"
         style="fill:#ffffff"
         id="path438" />
      <path
         d="m 363.28,273.55 c 0,0 -2.41,-24.16 -15.75,-17 -13.34,7.16 4.23,19.1 15.75,17 z"
         style="fill:#ffffff"
         id="path440" />
      <path
         d="m 350.78,307.72 c 0,0 10.36,-24.07 -7.74,-21.82 -18.1,2.25 -4.82,15.57 7.74,21.82 z"
         style="fill:#ffffff"
         id="path442" />
      <path
         d="m 378.2,317.15 c 0,0 15.71,-17.52 27.18,-11.52 11.47,6 1.49,23.58 -27.18,11.52 z"
         style="fill:#ffffff"
         id="path444" />
    </g>
    <path
       d="m 388.27,256.06 a 0.64,0.64 0 0 1 -0.2,0 0.64,0.64 0 0 1 -0.38,-0.32 c -0.05,-0.12 -5.91,-12.13 -10.51,-15.06 a 0.64,0.64 0 0 1 0.68,-1.08 c 4.34,2.77 9.41,12.46 10.68,15 9.09,-5 15.95,-14.55 16,-14.64 a 0.64,0.64 0 0 1 1,0.74 c -0.3,0.41 -7.4,10.27 -17,15.33 a 0.59,0.59 0 0 1 -0.27,0.03 z"
       style="fill:#263238"
       id="path448" />
    <path
       d="m 372.7,285.55 h -0.14 a 0.64,0.64 0 0 1 -0.41,-0.31 C 372.08,285.11 364.73,271.99 355,265.9 a 0.63,0.63 0 0 1 -0.2,-0.88 0.62,0.62 0 0 1 0.87,-0.2 c 8.91,5.57 15.65,16.47 17.24,19.19 14.14,-9.74 31.46,-8.83 31.64,-8.82 a 0.64,0.64 0 0 1 0.6,0.67 0.67,0.67 0 0 1 -0.68,0.6 c -0.17,0 -17.53,-0.91 -31.4,9 a 0.59,0.59 0 0 1 -0.37,0.09 z"
       style="fill:#263238"
       id="path450" />
    <path
       d="m 362.24,324.78 a 0.63,0.63 0 0 1 -0.41,-0.15 c -9.46,-8 -16.36,-27.54 -16.64,-28.37 a 0.63,0.63 0 0 1 0.39,-0.81 0.62,0.62 0 0 1 0.8,0.39 c 0.07,0.2 6.91,19.56 15.94,27.54 2.95,-1.57 21,-10.81 34.7,-10.81 h 0.23 a 0.64,0.64 0 0 1 0.63,0.64 0.64,0.64 0 0 1 -0.64,0.63 H 397 c -14.34,0 -34.28,10.75 -34.48,10.86 a 0.64,0.64 0 0 1 -0.28,0.08 z"
       style="fill:#263238"
       id="path452" />
    <path
       d="m 367.6,352.1 c 0,0 -5.9,-11.74 5.18,-16.07 11.08,-4.33 12.63,0.41 19.56,-2.83 6.93,-3.24 13,-12.39 13.32,-6 0.32,6.39 -7.52,9 -5.23,12.19 2.29,3.19 -20.08,19.21 -32.83,12.71 z"
       style="fill:#407bff"
       id="path454" />
    <path
       d="m 367.71,346.24 c 0,0 -8.24,-8.32 -15.41,-8.17 -7.17,0.15 -11.9,-7.1 -13.37,-1.78 -1.47,5.32 9.07,19.54 28.78,9.95 z"
       style="fill:#407bff"
       id="path456" />
    <polygon
       points="334.19,388.92 334.73,393.52 337.41,416.72 406.49,416.72 409.18,393.52 409.71,388.92 410.54,381.85 411.69,371.85 412.06,368.69 414.83,344.84 329.08,344.84 331.85,368.69 332.21,371.85 333.36,381.85 "
       style="fill:#263238"
       id="polygon458" />
    <polygon
       points="333.36,381.85 334.19,388.92 409.71,388.92 410.54,381.85 "
       style="opacity:0.4"
       id="polygon460" />
    <polygon
       points="334.73,393.52 337.41,416.72 406.49,416.72 409.18,393.52 "
       style="opacity:0.4"
       id="polygon462" />
    <polygon
       points="331.85,368.69 332.21,371.85 411.69,371.85 412.06,368.69 "
       style="opacity:0.4"
       id="polygon464" />
  </g>
  <g
     id="freepik--speech-bubble--inject-29"
     transform="translate(-8.9171975,-139.49045)">
    <path
       d="m 241.45,172.49 h -38.1 a 13.1,13.1 0 0 0 -13.1,13.1 v 37 a 13.11,13.11 0 0 0 13.1,13.1 h 15.18 l 4,13.83 4.77,-13.83 h 14.11 a 13.1,13.1 0 0 0 13.1,-13.1 v -37 a 13.09,13.09 0 0 0 -13.06,-13.1 z"
       style="fill:#407bff"
       id="path467" />
    <path
       d="m 241.45,172.49 h -38.1 a 13.1,13.1 0 0 0 -13.1,13.1 v 37 a 13.11,13.11 0 0 0 13.1,13.1 h 15.18 l 4,13.83 4.77,-13.83 h 14.11 a 13.1,13.1 0 0 0 13.1,-13.1 v -37 a 13.09,13.09 0 0 0 -13.06,-13.1 z"
       style="opacity:0.7;fill:#ffffff"
       id="path469" />
    <path
       d="m 209.17,196.68 c 3.3,-5.53 9.79,-3.5 13.18,0.72 3.28,-4.31 9.7,-6.5 13.15,-1.06 5.82,9.18 -5.81,17.9 -11.31,21.33 -0.62,0.39 -1.14,0.72 -1.57,1 -0.44,-0.24 -1,-0.55 -1.59,-0.93 -5.59,-3.31 -17.44,-11.74 -11.86,-21.06 z"
       style="fill:#407bff"
       id="path471" />
  </g>
  <g
     id="freepik--Dog--inject-29"
     transform="translate(-8.9171975,-139.49045)">
    <path
       d="M 375.25,416.72 H 95 a 12.31,12.31 0 0 1 -1.88,-5.31 c 0,-0.19 0,-0.39 -0.05,-0.58 -0.05,-0.19 0,-0.39 0,-0.58 0,-0.19 0,-0.39 0,-0.59 a 10,10 0 0 1 0.11,-1.24 c 0,-0.16 0,-0.32 0.09,-0.47 0.09,-0.15 0.08,-0.37 0.12,-0.54 a 5.5,5.5 0 0 1 0.16,-0.58 8.22,8.22 0 0 1 0.4,-1.08 c 0.07,-0.17 0.15,-0.35 0.23,-0.52 l 0.27,-0.51 v 0 l 0.3,-0.49 a 10.17,10.17 0 0 1 0.68,-0.94 c 0.12,-0.16 0.25,-0.3 0.38,-0.45 l 0.32,-0.35 0.71,-0.65 a 9.37,9.37 0 0 1 0.78,-0.59 6.2,6.2 0 0 1 0.69,-0.44 h 0.06 l 0.66,-0.36 0.25,-0.11 a 7.64,7.64 0 0 1 0.83,-0.35 c 0.25,-0.1 0.52,-0.2 0.79,-0.28 7.73,-2.38 28.94,-0.46 31.36,-0.46 a 1.14,1.14 0 0 0 0.42,-0.09 c 1.51,-0.6 3.79,-4.1 5.39,-6.86 l 0.26,-0.45 c 0.92,-1.6 1.57,-2.87 1.64,-3 h -2.36 c 0,0 0,0 0,0 a 35.24,35.24 0 0 0 1.75,-3.69 c 0.28,-0.67 0.54,-1.35 0.77,-2 0.1,-0.27 0.19,-0.53 0.28,-0.8 0.31,-0.94 0.58,-1.86 0.82,-2.72 0.12,-0.43 0.23,-0.86 0.33,-1.27 0.1,-0.41 0.19,-0.8 0.27,-1.19 0.08,-0.39 0.15,-0.65 0.21,-1 0.06,-0.35 0.09,-0.47 0.12,-0.68 0.1,-0.47 0.17,-0.89 0.23,-1.26 0,-0.17 0.05,-0.33 0.07,-0.48 l 0.06,-0.38 c 0,-0.12 0,-0.22 0,-0.32 0,-0.1 0,-0.19 0,-0.27 0,-0.27 0,-0.42 0,-0.42 h -1.77 c -0.06,-0.51 -0.1,-1 -0.13,-1.54 v -0.7 c 0,-0.19 0,-0.39 0,-0.58 0,-0.57 0,-1.15 0,-1.73 0,-0.38 0,-0.76 0,-1.15 0,-0.39 0,-0.66 0.06,-1 0.06,-0.34 0,-0.36 0,-0.55 v 0 c 0.07,-0.94 0.16,-1.87 0.28,-2.79 0,-0.31 0.08,-0.62 0.12,-0.93 0.04,-0.31 0.08,-0.6 0.13,-0.91 0.09,-0.6 0.19,-1.2 0.29,-1.79 0.1,-0.59 0.21,-1.17 0.32,-1.74 0.17,-0.86 0.35,-1.69 0.53,-2.49 0.07,-0.26 0.12,-0.52 0.19,-0.78 q 0.18,-0.78 0.36,-1.5 a 0.27,0.27 0 0 0 0,-0.12 c 0.11,-0.44 0.23,-0.87 0.34,-1.27 v 0 c 0.12,-0.44 0.24,-0.85 0.35,-1.24 0.39,-1.4 0.74,-2.52 1,-3.25 0,-0.11 0.06,-0.2 0.09,-0.29 0.03,-0.09 0.11,-0.3 0.14,-0.41 0.03,-0.11 0.07,-0.19 0.08,-0.23 0.01,-0.04 0,0 0,0 v 0 h -1.92 l 7.71,-31.91 c 0,0 28.36,-9.19 41,-8.48 0.47,0 0.91,0.06 1.33,0.12 0.21,0 0.42,0.06 0.61,0.09 a 9.22,9.22 0 0 1 1,0.22 5.54,5.54 0 0 1 1.21,0.44 4.18,4.18 0 0 1 0.63,0.37 2.17,2.17 0 0 1 0.32,0.27 2.37,2.37 0 0 1 0.27,0.28 2.26,2.26 0 0 1 0.39,0.67 1.71,1.71 0 0 1 0.13,0.38 20.22,20.22 0 0 0 0.85,2.71 l 0.25,0.61 c 0.17,0.45 0.38,0.91 0.6,1.39 0.12,0.28 0.26,0.56 0.4,0.86 0.39,0.81 0.82,1.64 1.28,2.49 a 127.08,127.08 0 0 0 7.1,11.11 c 0.85,1.24 1.65,2.38 2.36,3.37 l 0.53,0.73 0.83,1.14 0.68,0.91 v 0 l 0.26,0.35 0.12,0.16 0.33,0.43 0.17,0.22 h -3.84 c 6.4,4.86 26.66,13.64 26.66,13.64 l -1.88,1.39 c 18.76,7.23 86.5,4.52 87.4,4.49 l -1,0.41 -2.68,1.06 v 0 c 0.66,0.09 1.32,0.18 2,0.29 a 45.81,45.81 0 0 1 8.33,2.21 l 1.69,0.65 c 0.83,0.34 1.65,0.69 2.44,1.06 a 59.44,59.44 0 0 1 15.17,10 h -4.93 c 3.74,2 11,12.31 17.78,22.81 3,4.73 5.95,9.48 8.37,13.52 3.79,6.31 6.4,10.88 6.4,10.88 z"
       style="fill:#407bff"
       id="path474" />
    <path
       d="M 375.25,416.72 H 95 a 12.31,12.31 0 0 1 -1.88,-5.31 c 0,-0.19 0,-0.39 -0.05,-0.58 -0.05,-0.19 0,-0.39 0,-0.58 0,-0.19 0,-0.39 0,-0.59 a 10,10 0 0 1 0.11,-1.24 c 0,-0.16 0,-0.32 0.09,-0.47 0.09,-0.15 0.08,-0.37 0.12,-0.54 a 5.5,5.5 0 0 1 0.16,-0.58 8.22,8.22 0 0 1 0.4,-1.08 c 0.07,-0.17 0.15,-0.35 0.23,-0.52 l 0.27,-0.51 v 0 l 0.3,-0.49 a 10.17,10.17 0 0 1 0.68,-0.94 c 0.12,-0.16 0.25,-0.3 0.38,-0.45 l 0.32,-0.35 0.71,-0.65 a 9.37,9.37 0 0 1 0.78,-0.59 6.2,6.2 0 0 1 0.69,-0.44 h 0.06 l 0.66,-0.36 0.25,-0.11 a 7.64,7.64 0 0 1 0.83,-0.35 c 0.25,-0.1 0.52,-0.2 0.79,-0.28 7.73,-2.38 28.94,-0.46 31.36,-0.46 a 1.14,1.14 0 0 0 0.42,-0.09 c 1.51,-0.6 3.79,-4.1 5.39,-6.86 l 0.26,-0.45 c 0.92,-1.6 1.57,-2.87 1.64,-3 h -2.37 a 39.9,39.9 0 0 0 1.76,-3.69 c 0.19,-0.46 0.37,-0.93 0.54,-1.39 0.09,-0.21 0.16,-0.41 0.23,-0.62 0.07,-0.21 0.19,-0.53 0.28,-0.8 0.31,-0.94 0.58,-1.86 0.82,-2.72 0.12,-0.43 0.23,-0.86 0.33,-1.27 0.1,-0.41 0.19,-0.8 0.27,-1.19 0.08,-0.39 0.15,-0.65 0.21,-1 0.06,-0.35 0.09,-0.47 0.12,-0.68 0.1,-0.47 0.17,-0.89 0.23,-1.26 0,-0.17 0.05,-0.33 0.07,-0.48 l 0.06,-0.38 c 0,-0.12 0,-0.22 0,-0.32 0,-0.1 0,-0.19 0,-0.27 0,-0.27 0,-0.42 0,-0.42 h -1.77 c -0.06,-0.51 -0.1,-1 -0.13,-1.54 v -0.7 c 0,-0.19 0,-0.39 0,-0.58 0,-0.57 0,-1.15 0,-1.73 0,-0.38 0,-0.76 0,-1.15 0,-0.39 0,-0.66 0.06,-1 0.06,-0.34 0,-0.36 0,-0.55 v 0 c 0.07,-0.94 0.16,-1.87 0.28,-2.79 0,-0.31 0.08,-0.62 0.12,-0.93 0.04,-0.31 0.08,-0.6 0.13,-0.91 0.09,-0.6 0.19,-1.2 0.29,-1.79 0.1,-0.59 0.21,-1.17 0.32,-1.74 0.17,-0.86 0.35,-1.69 0.53,-2.49 0.07,-0.26 0.12,-0.52 0.19,-0.78 q 0.18,-0.78 0.36,-1.5 a 0.27,0.27 0 0 0 0,-0.12 c 0.11,-0.44 0.23,-0.87 0.34,-1.27 v 0 c 0.12,-0.44 0.24,-0.85 0.35,-1.24 0.4,-1.4 0.75,-2.52 1,-3.25 0,-0.11 0.06,-0.2 0.09,-0.29 0.03,-0.09 0.11,-0.3 0.14,-0.41 0.03,-0.11 0.07,-0.19 0.08,-0.23 0.01,-0.04 0,0 0,0 v 0 h -1.93 l 7.71,-31.91 c 0,0 28.36,-9.19 41,-8.48 0.47,0 0.91,0.06 1.33,0.12 0.21,0 0.42,0.06 0.61,0.09 a 9.22,9.22 0 0 1 1,0.22 5.54,5.54 0 0 1 1.21,0.44 4.18,4.18 0 0 1 0.63,0.37 2.17,2.17 0 0 1 0.32,0.27 2.37,2.37 0 0 1 0.27,0.28 2.26,2.26 0 0 1 0.39,0.67 2,2 0 0 1 0.12,0.37 19.09,19.09 0 0 0 0.86,2.72 6,6 0 0 0 0.25,0.61 c 0.17,0.45 0.38,0.91 0.6,1.39 0.12,0.28 0.26,0.56 0.4,0.86 0.39,0.81 0.82,1.64 1.28,2.49 a 127.08,127.08 0 0 0 7.11,11.12 c 0.85,1.24 1.65,2.38 2.36,3.37 l 0.53,0.73 0.83,1.14 0.68,0.91 v 0 l 0.26,0.35 0.12,0.16 c 0.13,0.17 0.25,0.31 0.33,0.43 l 0.17,0.22 h -3.84 c 6.4,4.86 26.66,13.64 26.66,13.64 l -1.88,1.39 c 18.76,7.23 86.5,4.52 87.4,4.49 l -1,0.41 -2.68,1.06 v 0 c 0.66,0.08 1.32,0.17 2,0.29 a 45.81,45.81 0 0 1 8.33,2.21 l 1.69,0.65 c 0.83,0.34 1.65,0.69 2.44,1.06 a 59.44,59.44 0 0 1 15.17,10 h -4.93 c 3.74,2 11,12.31 17.78,22.81 3,4.73 5.95,9.48 8.37,13.52 3.79,6.31 6.4,10.88 6.4,10.88 z"
       style="opacity:0.3;fill:#ffffff"
       id="path476" />
    <path
       d="m 192.4,323.38 v 11.37 h -2.75 c 0,0 -3.46,15.74 -2.27,21.11 0,0 -1.5,-0.67 -2.58,-4.59 0,0 -6.73,16.89 -12,21.42 l -0.33,-3 c 0,0 -7.71,23 10.89,47.05 h -9.1 c -4.85,-3.83 -10.28,-10.35 -15.05,-21.4 -12.23,-28.36 -9.32,-39.46 -9.32,-39.46 l -2.73,1.45 4,-16.12 h -2.89 c 0,0 0.23,-16.24 8.57,-20.58 8.34,-4.34 35.56,2.75 35.56,2.75 z"
       style="opacity:0.6;fill:#ffffff"
       id="path478" />
    <path
       d="m 208.06,330.79 a 14.72,14.72 0 0 1 -3,3.4 l -1.17,-1.46 c -0.61,4.22 -4.82,10.5 -4.82,10.5 l -1.28,-1.35 -0.84,2.69 c -9.09,0.27 -28,-6.46 -28,-6.46 l 0.18,2.16 a 34.78,34.78 0 0 1 -19,-24 c 0,0 33.68,-0.8 51,-0.39 2.03,5.06 4.65,10.46 6.93,14.91 z"
       style="opacity:0.1"
       id="path480" />
    <path
       d="M 234.1,416.72 H 95 c -4,-6.18 -1.84,-14.69 5.9,-17.06 7.74,-2.37 28.94,-0.46 31.36,-0.46 2.42,0 7.74,-10.39 7.74,-10.39 h -2.4 a 48,48 0 0 0 5,-16.45 h -1.77 a 40.62,40.62 0 0 1 -0.06,-7.24 c 0.52,2.39 1,4 1,4 l 0.86,-2.85 c -0.13,4.38 3.17,13.6 3.17,13.6 l 1.16,-3.51 c 2.14,13.82 12.16,19 12.16,19 l 0.21,-2.51 c 3.84,2.86 12.17,4.29 12.17,4.29 -0.2,-6 2.88,-13.07 2.88,-13.07 h -1.85 C 176.47,372.62 184,368 184,368 c 0,0 43.75,7.21 49.28,22.79 3.55,9.89 2.24,19.95 0.82,25.93 z"
       style="opacity:0.1"
       id="path482" />
    <path
       d="m 308.05,381.75 c 0,0 -13.6,-0.74 -21.91,0 -8.31,0.74 -22.23,9.09 -21.91,16.11 0.32,7.02 16.95,11.85 16.95,11.85 0,0 -20.15,-4.53 -26.07,-4.13 -5.92,0.4 -7.7,11.14 -7.7,11.14 h -6.31 c 0,0 -2.43,-12 2.43,-16.11 4.86,-4.11 15.91,0 15.91,0 0,0 -1.83,-15 9.37,-21.85 l -0.13,3 c 0,0 7.06,-6.28 22.11,-6.06 0,0 -3.28,2.42 -2.64,2.2 0.64,-0.22 5.91,-1.28 19.9,3.85 z"
       style="opacity:0.1"
       id="path484" />
    <path
       d="m 368.85,405.84 c -0.67,4.08 -3.52,7.88 -7.63,10.88 h -40.9 c -10.9,-7.65 -11.3,-16.29 -11.3,-16.29 l 3.31,1.49 c -2.39,-8.39 -0.64,-20.17 -0.64,-20.17 5.36,5.59 27.73,10.48 28.42,10.63 -0.63,-0.46 -16.28,-11.89 -4.7,-5.28 a 33.87,33.87 0 0 0 3.18,1.61 c 8.69,3.79 18.14,3.79 21.89,3.61 3.02,4.73 5.95,9.48 8.37,13.52 z"
       style="opacity:0.1"
       id="path486" />
    <path
       d="m 173.19,273.21 c 0,0 7.81,-21.76 20.81,-27.74 2.22,-1 8.38,29.67 -1.89,43 -0.76,1.04 -18.92,-15.26 -18.92,-15.26 z"
       style="fill:#407bff"
       id="path488" />
    <path
       d="m 197.67,271.29 a 45.22,45.22 0 0 1 -1.26,7.79 26,26 0 0 1 -4.29,9.43 c -0.76,1 -18.94,-15.3 -18.94,-15.3 0,0 7.82,-21.76 20.82,-27.73 1.48,-0.69 4.75,12.83 3.67,25.81 z"
       style="opacity:0.3;fill:#ffffff"
       id="path490" />
    <path
       d="m 193.82,248 c 0,0 -9.22,17.62 -1.84,27.19 7.25,9.43 6.68,-20.51 1.84,-27.19 z"
       style="opacity:0.6;fill:#ffffff"
       id="path492" />
    <path
       d="m 197.67,271.29 a 45.22,45.22 0 0 1 -1.26,7.79 c -4.55,-1.1 -10.35,-3.95 -15.95,-9.42 0,0 7.19,-2.79 17.21,1.63 z"
       style="opacity:0.1"
       id="path494" />
    <path
       d="m 223.18,299.18 c -1.55,-3.08 -13.3,-5 -13.3,-5 0,0 -0.21,-7.06 -3.27,-11.52 -3.06,-4.46 -16.2,-12.48 -24.07,-12.93 -7.87,-0.45 -24.6,2.15 -24.6,2.15 l -11.63,24.07 c 0,0 0,0.14 0,0.4 a 36.89,36.89 0 0 0 -1.83,11 l 0.89,-0.83 c 0,0 -0.66,7.07 1.95,11.69 l 0.91,-1 a 23.8,23.8 0 0 0 4.66,5.22 c 3.13,2.84 8,5.43 16.55,6.4 10,1.13 22.1,4.59 29.48,4.32 16.57,-0.6 17.43,-17.12 17.43,-17.12 8.86,0.43 8.38,-13.78 6.83,-16.85 z"
       style="fill:#407bff"
       id="path496" />
    <path
       d="m 216.31,316 c 0,0 -0.86,16.52 -17.43,17.12 -7.38,0.27 -19.52,-3.19 -29.48,-4.32 -8.52,-1 -13.42,-3.56 -16.55,-6.4 a 24.23,24.23 0 0 1 -4.67,-5.22 l -0.9,1 c -2.61,-4.63 -2,-11.7 -2,-11.7 l -0.88,0.83 a 37,37 0 0 1 1.83,-11 c 0,-0.26 0,-0.4 0,-0.4 l 11.63,-24.07 0.86,-0.13 c 0.84,-0.12 2.29,-0.33 4.07,-0.56 5.55,-0.74 14.52,-1.75 19.67,-1.46 7.87,0.45 21,8.4 24.07,12.93 2.16,3.15 2.9,7.6 3.15,9.94 0.1,1 0.12,1.58 0.12,1.58 0,0 11.75,1.94 13.31,5 1.56,3.06 2.1,17.32 -6.8,16.86 z"
       style="opacity:0.3;fill:#ffffff"
       id="path498" />
    <path
       d="m 221,314.34 a 6.06,6.06 0 0 1 -4.72,1.65 c 0,0 -0.57,10.95 -9.73,15.34 a 19,19 0 0 1 -7.7,1.78 c -7.38,0.27 -19.52,-3.19 -29.48,-4.32 -8.52,-1 -13.42,-3.56 -16.55,-6.4 0.47,-2.23 1.45,-6.05 3.06,-8.51 l -2.46,0.1 c 0,0 -1.15,-5.09 10.91,-7.61 12.06,-2.52 21.28,-8.13 24.12,-11.08 2.84,-2.95 1.45,-14 -0.26,-15.84 -1.71,-1.84 -5.26,-2.95 -4.38,-4.14 0.88,-1.19 6.28,2.2 8.22,5.79 1.94,3.59 5.73,11.87 7.18,12.84 a 106.35,106.35 0 0 1 10.64,0.22 c 0,0 11.75,1.94 13.31,5 1.22,2.39 1.78,11.4 -2.16,15.18 z"
       style="opacity:0.6;fill:#ffffff"
       id="path500" />
    <path
       d="m 180.2,292.28 c -0.4,2.19 -2.13,3.67 -3.87,3.32 -1.74,-0.35 -2.85,-2.4 -2.47,-4.6 0.38,-2.2 2.12,-3.71 3.88,-3.36 1.76,0.35 2.86,2.43 2.46,4.64 z"
       style="fill:#263238"
       id="path502" />
    <path
       d="m 206.06,288.48 c 0.53,2.19 -0.31,4.27 -1.87,4.66 -1.56,0.39 -3.25,-1.05 -3.78,-3.23 -0.53,-2.18 0.29,-4.29 1.86,-4.69 1.57,-0.4 3.27,1.07 3.79,3.26 z"
       style="fill:#263238"
       id="path504" />
    <path
       d="m 222.19,299 c -3.35,-2.52 -10.29,-1.56 -12.56,2.08 -1.89,3 8.23,7 8.23,7 0,0 6.72,-7.25 4.33,-9.08 z"
       style="fill:#263238"
       id="path506" />
    <path
       d="m 221,314.34 a 6.06,6.06 0 0 1 -4.72,1.65 c 0,0 -0.57,10.95 -9.73,15.34 -11.36,-1.19 -17.38,-11 -17.38,-11 12.27,2.2 27.13,-6 27.13,-6 a 4.93,4.93 0 0 0 4.69,0 z"
       style="opacity:0.1"
       id="path508" />
    <path
       d="m 218.45,315.44 a 4.29,4.29 0 0 1 -2.32,-0.84 0.34,0.34 0 1 1 0.41,-0.54 3.42,3.42 0 0 0 2.24,0.67 0.34,0.34 0 0 1 0.4,0.27 0.34,0.34 0 0 1 -0.27,0.4 2.45,2.45 0 0 1 -0.46,0.04 z"
       style="fill:#263238"
       id="path510" />
    <path
       d="m 213.71,316 c 0,0 -0.13,10.67 -9.77,10.68 -5.54,0 -11.92,-5.46 -11.92,-5.46 A 77.25,77.25 0 0 0 213.71,316 Z"
       style="fill:#263238"
       id="path512" />
    <path
       d="m 197,321.21 a 64.68,64.68 0 0 0 7.85,10 C 209,335.37 214,329 208.69,318 A 86.1,86.1 0 0 1 197,321.21 Z"
       style="fill:#407bff"
       id="path514" />
    <path
       d="m 193.31,321.47 a 9.71,9.71 0 0 1 -3.62,-0.55 l -0.55,-0.22 a 9,9 0 0 1 -5.44,-4.45 0.34438351,0.34438351 0 1 1 0.62,-0.3 8.39,8.39 0 0 0 5.07,4.11 l 0.56,0.23 c 5.06,2.11 23.3,-3.23 26.14,-6.2 2.61,-2.72 0.85,-9.36 0.83,-9.43 a 0.34,0.34 0 0 1 0.24,-0.42 0.34,0.34 0 0 1 0.42,0.24 c 0.08,0.29 1.88,7.09 -1,10.09 -2.29,2.43 -15.68,6.9 -23.27,6.9 z"
       style="fill:#263238"
       id="path516" />
    <path
       d="m 206.54,325.46 a 0.34,0.34 0 0 1 -0.33,-0.25 17.06,17.06 0 0 0 -2.76,-5.39 0.34124771,0.34124771 0 1 1 0.53,-0.43 17.46,17.46 0 0 1 2.89,5.63 0.35,0.35 0 0 1 -0.24,0.43 z"
       style="fill:#263238"
       id="path518" />
    <path
       d="m 162.87,271.17 a 7.41,7.41 0 0 1 -1.06,3.52 l -3,-3 c 0.83,-0.08 2.28,-0.29 4.06,-0.52 z"
       style="opacity:0.1"
       id="path520" />
    <path
       d="m 161.82,274.69 c 0,0 -5.36,-21 -18.44,-28.38 -5.53,-3.13 -5.31,45.63 6.63,55.32 11.72,9.5 11.81,-26.94 11.81,-26.94 z"
       style="fill:#407bff"
       id="path522" />
    <path
       d="m 161.82,274.69 c 0,0 -5.36,-21 -18.44,-28.38 -5.53,-3.13 -5.31,45.63 6.63,55.32 11.72,9.5 11.81,-26.94 11.81,-26.94 z"
       style="opacity:0.3;fill:#ffffff"
       id="path524" />
    <path
       d="m 143.74,248.7 c 0.41,-1.59 10,17.67 11.33,28.89 1.3,11 -6.71,18.21 -6.71,18.21 0,0 -11.97,-18.08 -4.62,-47.1 z"
       style="opacity:0.6;fill:#ffffff"
       id="path526" />
    <path
       d="m 209.13,311 a 0.51,0.51 0 1 1 -0.51,-0.51 0.51,0.51 0 0 1 0.51,0.51 z"
       style="opacity:0.2"
       id="path528" />
    <path
       d="m 221.43,313.12 c -0.14,0.24 -0.32,0.39 -0.41,0.34 -0.09,-0.05 -0.06,-0.29 0.08,-0.53 0.14,-0.24 0.33,-0.4 0.42,-0.35 0.09,0.05 0.05,0.29 -0.09,0.54 z"
       style="opacity:0.2"
       id="path530" />
    <path
       d="m 223.55,308.38 c 0,0.28 -0.15,0.49 -0.25,0.48 -0.1,-0.01 -0.16,-0.25 -0.13,-0.53 0.03,-0.28 0.15,-0.49 0.25,-0.48 0.1,0.01 0.16,0.25 0.13,0.53 z"
       style="opacity:0.2"
       id="path532" />
    <path
       d="m 221.08,310 c 0,0.28 -0.15,0.5 -0.25,0.48 -0.1,-0.02 -0.17,-0.25 -0.13,-0.52 0.04,-0.27 0.14,-0.5 0.25,-0.48 0.11,0.02 0.16,0.26 0.13,0.52 z"
       style="opacity:0.2"
       id="path534" />
    <path
       d="m 206.41,314.33 a 0.51,0.51 0 1 1 -0.51,-0.51 0.51,0.51 0 0 1 0.51,0.51 z"
       style="opacity:0.2"
       id="path536" />
    <path
       d="m 204.25,310 a 0.51,0.51 0 0 1 -1,0 0.51,0.51 0 0 1 1,0 z"
       style="opacity:0.2"
       id="path538" />
    <circle
       cx="200.97"
       cy="313.64999"
       r="0.50999999"
       style="opacity:0.2"
       id="circle540" />
    <path
       d="m 198.3,316 a 0.51,0.51 0 0 1 -1,0 0.51,0.51 0 0 1 1,0 z"
       style="opacity:0.2"
       id="path542" />
    <circle
       cx="193.07001"
       cy="313.82001"
       r="0.50999999"
       style="opacity:0.2"
       id="circle544" />
    <path
       d="m 197.79,311 a 0.51,0.51 0 0 1 -0.51,0.51 0.51,0.51 0 0 1 0,-1 0.51,0.51 0 0 1 0.51,0.49 z"
       style="opacity:0.2"
       id="path546" />
    <path
       d="m 209.88,294.16 c 0,0 -12.39,-0.84 -17.86,1 0,0 4.94,-4 17.74,-2.56 0.1,0.95 0.12,1.56 0.12,1.56 z"
       style="opacity:0.1"
       id="path548" />
    <path
       d="m 185.83,363.67 c 0,0 -8.79,11.18 -9.62,19 h 2 a 39.22,39.22 0 0 0 -2.09,16.77 c 0,0 -7,0.32 -16.46,-0.22 -16,-0.92 -21.24,5.34 -16.21,17.54 h 74.24 c 0,0 6.39,-5.81 6.27,-9.65 l 0.54,5.06 c 0,0 9.23,-10.21 9.06,-19.1 -0.17,-8.89 -15.04,-52.51 -47.73,-29.4 z"
       style="fill:#407bff"
       id="path550" />
    <path
       d="m 233.55,393 c 0.17,8.89 -9.06,19.1 -9.06,19.1 l -0.54,-5.05 c 0.12,3.83 -6.27,9.64 -6.27,9.64 h -74.24 c -5,-12.2 0.2,-18.46 16.21,-17.54 9.47,0.54 16.46,0.21 16.46,0.21 a 39.19,39.19 0 0 1 2.09,-16.76 h -2 c 0.83,-7.78 9.62,-19 9.62,-19 32.7,-23.04 47.55,20.54 47.73,29.4 z"
       style="opacity:0.3;fill:#ffffff"
       id="path552" />
    <path
       d="m 176.11,399.4 c 9.49,-0.28 15.52,3.34 16.23,7 0,0 -1.77,-5.73 -3.56,-7 h 2.82 a 14,14 0 0 0 -9.11,-3 8,8 0 0 0 -6.38,3 z"
       style="opacity:0.1"
       id="path554" />
    <path
       d="m 151,416.72 h -2.43 c 0,0 -4.33,-7.52 -0.49,-11.7 0.02,0.44 -0.34,7.98 2.92,11.7 z"
       style="opacity:0.1"
       id="path556" />
    <path
       d="m 159.88,416.72 h -3.43 c -0.21,-0.4 -3.5,-6.9 -0.55,-10.36 0,0 0.1,6.72 3.98,10.36 z"
       style="opacity:0.1"
       id="path558" />
    <path
       d="M 170.15,416.72 H 167 c 0,0 2.39,-2.4 1.31,-4.15 -0.05,0 3,0.51 1.84,4.15 z"
       style="opacity:0.1"
       id="path560" />
    <path
       d="m 360.15,394.76 c 0.46,0 0.92,-0.08 1.38,-0.13 a 4.93,4.93 0 0 1 -1.92,0.15 z"
       style="opacity:0.1"
       id="path562" />
    <path
       d="m 399.38,404.59 -3.47,-2.36 c 0,0 3.77,10.85 -7.07,14.49 h -61.71 c -0.8,-0.38 -10.32,-5.14 -11.94,-15.5 0,0 1.13,1.47 4.35,1.84 a 31.79,31.79 0 0 1 -4.2,-25 c 0,0 9,7.8 19.76,10.72 l -1.32,-4.68 a 43.74,43.74 0 0 0 3.63,2.75 c 0.2,0.15 0.42,0.3 0.65,0.45 1,0.68 2.17,1.42 3.45,2.15 0.24,0.15 0.49,0.29 0.75,0.43 l 0.47,0.25 c 0.24,0.14 0.49,0.27 0.74,0.39 0.42,0.23 0.85,0.45 1.29,0.65 l 1,0.49 c 0.27,0.12 0.54,0.25 0.81,0.35 0.52,0.23 1.05,0.45 1.59,0.65 0.31,0.12 0.63,0.24 0.95,0.34 0.32,0.1 0.54,0.2 0.81,0.28 l 0.18,0.07 0.7,0.21 h 0.06 a 33.29,33.29 0 0 0 3.45,0.82 l 0.71,0.12 0.35,0.05 0.67,0.08 a 3.91,3.91 0 0 0 0.48,0.05 c 0.29,0 0.57,0.05 0.85,0.07 a 18,18 0 0 0 2.2,0 h 0.54 c 0.46,0 0.92,-0.08 1.38,-0.13 l -4.18,-7.05 a 21.23,21.23 0 0 1 14.28,-7.33 l -1.22,4.1 c 0,0 12.61,-2.93 21.5,4.58 8.89,7.51 7.51,15.67 7.51,15.67 z"
       style="fill:#407bff"
       id="path564" />
    <path
       d="m 399.38,404.59 -3.47,-2.36 c 0,0 3.77,10.85 -7.07,14.49 h -61.71 c -0.8,-0.38 -10.32,-5.14 -11.94,-15.5 0,0 1.13,1.47 4.35,1.84 a 31.79,31.79 0 0 1 -4.2,-25 c 0,0 9,7.8 19.76,10.72 l -1.32,-4.68 a 43.74,43.74 0 0 0 3.63,2.75 c 0.2,0.15 0.42,0.3 0.65,0.45 1,0.68 2.17,1.42 3.45,2.15 l 0.75,0.43 0.47,0.25 c 0.24,0.14 0.49,0.26 0.74,0.39 0.42,0.23 0.85,0.45 1.29,0.65 l 1,0.49 0.81,0.35 c 0.52,0.23 1.05,0.45 1.59,0.65 0.31,0.12 0.63,0.24 0.95,0.34 0.32,0.1 0.54,0.2 0.81,0.28 l 0.18,0.07 0.7,0.21 h 0.06 a 33.29,33.29 0 0 0 3.45,0.82 l 0.71,0.12 0.35,0.05 c 0.22,0 0.45,0.07 0.67,0.08 a 3.91,3.91 0 0 0 0.48,0.05 c 0.28,0 0.57,0.05 0.85,0.07 a 18,18 0 0 0 2.2,0 h 0.54 c 0.46,0 0.92,-0.08 1.38,-0.13 l -4.18,-7.05 a 21.23,21.23 0 0 1 14.28,-7.33 l -1.22,4.1 c 0,0 12.61,-2.93 21.5,4.58 8.89,7.51 7.51,15.67 7.51,15.67 z"
       style="opacity:0.3;fill:#ffffff"
       id="path566" />
    <path
       d="m 369.86,389.92 c -2.71,4.15 -8.33,4.71 -8.33,4.71 l -4.18,-7.05 c 6.84,-2.66 11,0.51 11,0.51 a 4,4 0 0 0 1.1,-2.14 c 0,0 3.11,-0.16 0.41,3.97 z"
       style="opacity:0.1"
       id="path568" />
    <path
       d="m 359.43,408.56 c 0,0 -2.55,4.06 -17.64,2.41 a 15.06,15.06 0 0 0 5.76,2.64 c 0,0 -1.67,1.9 -5.94,3.11 h -14.48 c -0.8,-0.38 -10.32,-5.14 -11.94,-15.5 0,0 1.13,1.47 4.35,1.84 a 31.79,31.79 0 0 1 -4.2,-25 c 0,0 9,7.8 19.76,10.72 l -1.32,-4.68 c 0,0 7.65,6.67 17.12,9.48 a 16.35,16.35 0 0 0 5,3.82 c 0,0 -6.59,0.34 -9.9,-1.18 0,-0.01 1.41,8.45 13.43,12.34 z"
       style="opacity:0.6;fill:#ffffff"
       id="path570" />
  </g>
  <g
     id="freepik--Cat--inject-29"
     transform="translate(-8.9171975,-139.49045)">
    <path
       d="m 282.72,308.72 c 0,0 14.48,8.59 14.83,14.3 0,0 51.1,28.75 34.5,93.7 h -75.36 c 0,0 -10.25,-23.37 -3,-38.31 l -0.65,0.11 c 2.41,-3.66 4.38,-3.1 4.38,-3.1 0,0 2.34,-27.65 1.42,-35.65 -0.92,-8 -5.15,-25.45 -5.15,-25.45 z"
       style="fill:#263238"
       id="path573" />
    <path
       d="m 335.37,392.12 c 0,0.61 0,1.22 0,1.85 a 93.49,93.49 0 0 1 -1,11.22 l -0.24,1.61 q -0.76,4.81 -2.07,9.92 h -75.37 c 0,0 -0.93,-2.13 -2,-5.53 a 75.61,75.61 0 0 1 -3,-12.44 c -1,-6.74 -1,-14.24 2,-20.34 l -0.65,0.11 c 1.56,-2.37 2.94,-3 3.72,-3.1 a 1.69,1.69 0 0 1 0.67,0 c 0,0 0.12,-1.51 0.31,-3.93 0.6,-7.93 1.81,-25.59 1.1,-31.72 -0.24,-2.1 -0.71,-4.85 -1.28,-7.77 -1.56,-8.19 -3.87,-17.68 -3.87,-17.68 l 29.06,-5.6 c 0,0 1.2,0.71 2.91,1.86 3.92,2.63 10.55,7.53 11.73,11.48 a 3.79,3.79 0 0 1 0.19,1 c 0,0 0.52,0.3 1.43,0.88 a 72.62,72.62 0 0 1 6.8,5 c 0.81,0.69 1.67,1.43 2.55,2.22 a 86.39,86.39 0 0 1 7.29,7.43 c 0.81,0.94 1.64,1.93 2.45,3 v 0 a 82.41,82.41 0 0 1 6.06,8.76 v 0 c 0.78,1.3 1.53,2.64 2.26,4 a 76,76 0 0 1 4.86,11.41 v 0 c 0.33,1 0.64,2 0.92,3 a 78,78 0 0 1 2.23,10.11 c 0.13,0.83 0.24,1.66 0.34,2.5 a 84.6,84.6 0 0 1 0.6,10.75 z"
       style="opacity:0.2;fill:#ffffff"
       id="path575" />
    <path
       d="m 268.09,320.12 c 0,0 -5.28,4.43 -5.73,7.22 l -1.21,-0.67 c 0,0 0.38,7.89 -0.31,12.3 l -0.82,-2.19 a 54.13,54.13 0 0 1 -0.85,9.79 c -0.05,-2.65 -0.16,-5 -0.36,-6.8 -0.92,-8 -5.15,-25.45 -5.15,-25.45 l 3.47,-0.67 a 125.47,125.47 0 0 1 10.96,6.47 z"
       style="opacity:0.2;fill:#ffffff"
       id="path577" />
    <path
       d="m 285.63,310.58 c -1.14,3.59 -4.29,11.4 -10.68,14.25 v -1 a 40.22,40.22 0 0 0 -9.31,5.45 l 0.45,-2.58 a 27.17,27.17 0 0 0 -8.56,5.33 c -1.56,-8.19 -3.87,-17.68 -3.87,-17.68 l 29.06,-5.6 c 0,0 1.2,0.68 2.91,1.83 z"
       style="opacity:0.2"
       id="path579" />
    <path
       d="m 257.4,375.42 h -0.67 a 1.69,1.69 0 0 1 0.67,0 z"
       style="opacity:0.2"
       id="path581" />
    <path
       d="m 273.15,388.68 c 0,0 -6.81,-11.05 -15.75,-13.26 0,0 0.12,-1.51 0.31,-3.93 a 13.75,13.75 0 0 1 3.44,0 l 2.34,-8.73 c 2.44,-1.44 6.15,-8.81 6.15,-8.81 V 356 c 3.09,-2.37 1.76,-10.87 1.76,-10.87 2,2.87 0.71,10.87 0.71,10.87 l -0.71,-2.1 c 0,0 0.25,3.16 -3.31,5.88 -3.56,2.72 -2.82,9.87 -2.82,9.87 4.89,5.78 7.88,19.03 7.88,19.03 z"
       style="opacity:0.2"
       id="path583" />
    <g
       style="opacity:0.4"
       id="g633">
      <path
         d="m 260.84,346.57 a 3.17,3.17 0 0 0 2.53,-0.3 22.63,22.63 0 0 0 2.24,-1.47 12,12 0 0 1 2.47,-1.35 5.1,5.1 0 0 1 2.8,-0.33 12.42,12.42 0 0 0 -4.8,2.37 11.08,11.08 0 0 1 -2.46,1.38 2.86,2.86 0 0 1 -0.71,0.19 2.61,2.61 0 0 1 -0.74,0 2.91,2.91 0 0 1 -0.72,-0.17 4.65,4.65 0 0 1 -0.61,-0.32 z"
         id="path585" />
      <path
         d="m 262.09,340.35 a 4.47,4.47 0 0 0 2.08,-1.47 c 0.59,-0.64 1.17,-1.32 1.8,-2 a 8.88,8.88 0 0 1 2.2,-1.67 3.73,3.73 0 0 1 2.71,-0.36 5.08,5.08 0 0 0 -2.38,0.92 14.76,14.76 0 0 0 -1.94,1.7 26.6,26.6 0 0 1 -1.95,1.85 3.43,3.43 0 0 1 -2.52,1.03 z"
         id="path587" />
      <path
         d="m 269.65,347.47 a 36,36 0 0 1 -3.67,3.94 13.6,13.6 0 0 1 -2.19,1.64 4,4 0 0 1 -2.64,0.71 5.88,5.88 0 0 0 2.27,-1.25 c 0.68,-0.54 1.34,-1.13 2,-1.72 0.66,-0.59 1.32,-1.19 2,-1.75 a 14.47,14.47 0 0 1 2.23,-1.57 z"
         id="path589" />
      <path
         d="m 260,379.46 a 8.37,8.37 0 0 0 -2.64,3.61 37.73,37.73 0 0 0 -1.65,4.25 q -0.72,2.16 -1.26,4.38 a 32.65,32.65 0 0 0 -0.81,4.52 16.79,16.79 0 0 1 0.16,-4.64 30.58,30.58 0 0 1 1.12,-4.53 23.53,23.53 0 0 1 1.87,-4.28 c 0.19,-0.34 0.41,-0.67 0.62,-1 0.21,-0.33 0.47,-0.63 0.71,-0.94 a 4.54,4.54 0 0 1 1.88,-1.37 z"
         id="path591" />
      <path
         d="m 257.4,404.93 a 33.3,33.3 0 0 1 0.91,-5 35.55,35.55 0 0 1 1.6,-4.8 20.28,20.28 0 0 1 2.48,-4.45 6.73,6.73 0 0 1 4.09,-2.88 7.66,7.66 0 0 0 -3.56,3.26 28.33,28.33 0 0 0 -2.24,4.39 c -0.65,1.53 -1.21,3.09 -1.74,4.66 -0.53,1.57 -1.05,3.21 -1.54,4.82 z"
         id="path593" />
      <path
         d="m 263.58,411.1 a 20,20 0 0 1 3,-7.13 15.39,15.39 0 0 1 2.58,-3 9.64,9.64 0 0 1 3.39,-1.9 15.94,15.94 0 0 0 -2.95,2.38 24.66,24.66 0 0 0 -2.33,2.94 37.49,37.49 0 0 0 -1.94,3.24 c -0.62,1.17 -1.21,2.3 -1.75,3.47 z"
         id="path595" />
      <path
         d="m 283.2,313.65 a 143.91,143.91 0 0 1 15.31,19.68 c 2.26,3.5 4.38,7.1 6.33,10.79 a 105.62,105.62 0 0 1 5.16,11.44 84.35,84.35 0 0 1 5.1,24.5 96.7,96.7 0 0 1 0,12.51 84.23,84.23 0 0 1 -1.68,12.36 101,101 0 0 0 0.86,-12.4 113.48,113.48 0 0 0 -0.47,-12.37 100.08,100.08 0 0 0 -1.87,-12.2 c -0.19,-1 -0.47,-2 -0.72,-3 -0.25,-1 -0.47,-2 -0.8,-3 -0.62,-2 -1.2,-3.92 -2,-5.83 A 132.56,132.56 0 0 0 297.42,334 206.24,206.24 0 0 0 283.2,313.65 Z"
         id="path597" />
      <path
         d="m 285.63,321.83 a 13.9,13.9 0 0 0 -4.29,3.07 17.67,17.67 0 0 0 -2.85,4.3 c -0.8,1.56 -1.44,3.23 -2.12,4.91 a 32.09,32.09 0 0 1 -2.34,5 c 0.33,-1.82 0.64,-3.6 1.1,-5.38 a 26.3,26.3 0 0 1 1.86,-5.25 13.79,13.79 0 0 1 3.46,-4.51 9.18,9.18 0 0 1 5.18,-2.14 z"
         id="path599" />
      <path
         d="m 289.12,328.3 a 6.56,6.56 0 0 0 -2.81,1.63 20.1,20.1 0 0 0 -2.2,2.41 46,46 0 0 0 -3.62,5.48 c -1.11,1.9 -2.11,3.87 -3.06,5.87 -0.95,2 -1.79,4.05 -2.6,6.17 a 25,25 0 0 1 1.39,-6.66 35.13,35.13 0 0 1 2.78,-6.2 28.06,28.06 0 0 1 4.09,-5.5 14.21,14.21 0 0 1 2.69,-2.2 5.7,5.7 0 0 1 3.34,-1 z"
         id="path601" />
      <path
         d="m 294.86,336.73 a 5.41,5.41 0 0 0 -2.32,1.39 19.44,19.44 0 0 0 -1.91,1.94 46.48,46.48 0 0 0 -3.34,4.32 c -1,1.5 -2,3 -2.92,4.61 -0.92,1.61 -1.77,3.18 -2.54,4.83 l -1.21,2.51 c -0.46,0.84 -0.92,1.66 -1.44,2.45 -1,1.56 -2.14,3.06 -3.26,4.52 a 34.94,34.94 0 0 0 -3,4.51 11.46,11.46 0 0 0 -1.52,5.19 10.35,10.35 0 0 1 0.73,-5.53 28.32,28.32 0 0 1 2.72,-4.92 c 1,-1.56 2.07,-3.05 3,-4.61 l 0.68,-1.16 0.64,-1.19 1.16,-2.48 a 49.35,49.35 0 0 1 5.92,-9.5 36.19,36.19 0 0 1 3.81,-4.12 17.74,17.74 0 0 1 2.21,-1.73 5.2,5.2 0 0 1 2.59,-1.03 z"
         id="path603" />
      <path
         d="m 300.2,346.57 a 15.2,15.2 0 0 0 -5.05,2.58 23.37,23.37 0 0 0 -4,3.9 33.35,33.35 0 0 0 -3.17,4.64 l -1.33,2.52 c -0.45,0.86 -0.89,1.73 -1.37,2.57 -1,1.7 -2,3.34 -3.05,5 l -3.26,4.76 a 29.59,29.59 0 0 0 -2.82,4.9 15.66,15.66 0 0 0 -1.25,5.53 13.31,13.31 0 0 1 0.48,-5.8 25.15,25.15 0 0 1 2.48,-5.33 c 2,-3.34 4.13,-6.49 6,-9.84 0.49,-0.82 0.93,-1.66 1.38,-2.5 0.45,-0.84 0.93,-1.72 1.42,-2.56 a 29.14,29.14 0 0 1 3.55,-4.72 21.23,21.23 0 0 1 4.58,-3.71 13,13 0 0 1 5.41,-1.94 z"
         id="path605" />
      <path
         d="m 305.5,360.44 a 29.85,29.85 0 0 0 -9.5,4.08 20.93,20.93 0 0 0 -3.85,3.29 c -0.3,0.3 -0.54,0.65 -0.81,1 -0.27,0.35 -0.53,0.65 -0.81,1 -0.54,0.71 -1.11,1.4 -1.69,2.07 -2.37,2.67 -5,5.05 -7.48,7.47 a 35.72,35.72 0 0 0 -3.48,3.82 8.23,8.23 0 0 0 -1.94,4.69 7.7,7.7 0 0 1 1.25,-5.14 28.77,28.77 0 0 1 3.22,-4.27 c 2.36,-2.65 4.9,-5.06 7.17,-7.67 0.57,-0.65 1.13,-1.3 1.66,-2 0.26,-0.32 0.55,-0.68 0.85,-1 a 11,11 0 0 1 0.91,-1 19,19 0 0 1 4.32,-3.31 22.43,22.43 0 0 1 10.18,-3.03 z"
         id="path607" />
      <path
         d="m 307.65,373 a 44.08,44.08 0 0 0 -8.55,3.41 24,24 0 0 0 -3.73,2.5 16.31,16.31 0 0 0 -1.56,1.55 c -0.24,0.25 -0.5,0.56 -0.77,0.88 -0.27,0.32 -0.54,0.6 -0.83,0.89 a 41.48,41.48 0 0 1 -7.64,5.56 c -1.31,0.82 -2.64,1.61 -3.87,2.51 a 11.59,11.59 0 0 0 -1.73,1.47 4.34,4.34 0 0 0 -1.14,1.94 4.17,4.17 0 0 1 0.78,-2.23 10.8,10.8 0 0 1 1.56,-1.81 37.72,37.72 0 0 1 3.67,-3 A 60.87,60.87 0 0 0 291,381 c 0.27,-0.26 0.52,-0.53 0.77,-0.8 0.25,-0.27 0.49,-0.56 0.78,-0.87 a 15,15 0 0 1 1.79,-1.68 20.25,20.25 0 0 1 4.15,-2.44 26.56,26.56 0 0 1 9.16,-2.21 z"
         id="path609" />
      <path
         d="m 308.48,387.84 a 30.57,30.57 0 0 0 -7.84,1 48.83,48.83 0 0 0 -7.4,2.65 c -2.45,1 -4.89,2.07 -7.28,3.19 -1.19,0.57 -2.37,1.15 -3.5,1.83 a 13.58,13.58 0 0 0 -1.62,1.1 4.37,4.37 0 0 0 -0.69,0.67 1.83,1.83 0 0 0 -0.45,0.86 2.79,2.79 0 0 1 0.82,-1.86 11.1,11.1 0 0 1 1.47,-1.44 25.36,25.36 0 0 1 3.36,-2.31 58.08,58.08 0 0 1 7.25,-3.58 c 1.25,-0.5 2.48,-1 3.79,-1.44 a 27.55,27.55 0 0 1 4,-0.95 19.38,19.38 0 0 1 8.09,0.28 z"
         id="path611" />
      <path
         d="m 308.48,399.12 c -2.31,0.21 -4.6,0.36 -6.89,0.5 -2.29,0.14 -4.55,0.31 -6.81,0.55 -1.13,0.09 -2.26,0.22 -3.38,0.38 -1.12,0.16 -2.23,0.33 -3.34,0.54 a 18.55,18.55 0 0 0 -6.36,2.25 9.48,9.48 0 0 1 2.76,-2.18 19.47,19.47 0 0 1 3.28,-1.34 34.41,34.41 0 0 1 6.88,-1.32 52.2,52.2 0 0 1 7,-0.18 42.29,42.29 0 0 1 6.86,0.8 z"
         id="path613" />
      <path
         d="m 299,323.9 -0.9,-0.37 c -1.58,-0.61 -3.17,-1.2 -4.86,-1.7 a 14,14 0 0 1 4.14,0.23 3.79,3.79 0 0 1 0.19,1 c 0,0 0.5,0.26 1.43,0.84 z"
         id="path615" />
      <path
         d="m 308.33,331.16 -1.72,-0.67 a 43.11,43.11 0 0 0 -8.07,-2.19 22.71,22.71 0 0 1 7.24,0.64 c 0.81,0.69 1.67,1.43 2.55,2.22 z"
         id="path617" />
      <path
         d="m 318.07,341.55 c -1.07,-0.66 -2.15,-1.3 -3.25,-1.9 a 48.69,48.69 0 0 0 -9.32,-4 22.46,22.46 0 0 1 5.05,1 36.84,36.84 0 0 1 4.85,1.83 l 0.22,0.1 c 0.81,0.95 1.64,1.94 2.45,2.97 z"
         id="path619" />
      <path
         d="m 326.4,354.37 c -0.18,-0.19 -0.37,-0.36 -0.57,-0.54 a 30.89,30.89 0 0 0 -8,-5.43 60.57,60.57 0 0 0 -9.34,-3.24 33.74,33.74 0 0 1 9.85,2 25.93,25.93 0 0 1 4.57,2.27 l 1.23,0.84 v 0 c 0.78,1.36 1.53,2.73 2.26,4.1 z"
         id="path621" />
      <path
         d="m 332.18,368.76 -1.61,-1.45 c -0.63,-0.55 -1.34,-1 -2,-1.52 -0.66,-0.52 -1.38,-0.93 -2.08,-1.4 a 23,23 0 0 0 -2.17,-1.24 33.92,33.92 0 0 0 -9.5,-3.43 24.51,24.51 0 0 1 10.08,2.28 30.21,30.21 0 0 1 6.36,3.81 v 0 c 0.33,0.95 0.64,1.94 0.92,2.95 z"
         id="path623" />
      <path
         d="m 334.75,381.37 c -0.36,-0.36 -0.75,-0.68 -1.14,-1 a 13.68,13.68 0 0 0 -1.45,-1.19 30.1,30.1 0 0 0 -6.47,-3.84 33.78,33.78 0 0 0 -7.3,-2.32 19.86,19.86 0 0 1 7.77,1.1 24,24 0 0 1 7,3.73 c 0.42,0.33 0.83,0.68 1.23,1 0.15,0.85 0.26,1.68 0.36,2.52 z"
         id="path625" />
      <path
         d="m 335.37,392.12 c 0,0.61 0,1.22 0,1.85 l -0.29,-0.18 c -0.48,-0.3 -1,-0.58 -1.48,-0.85 -0.48,-0.27 -1,-0.56 -1.49,-0.8 l -1.53,-0.75 -1.57,-0.68 c -1,-0.44 -2.11,-0.84 -3.19,-1.2 a 41.43,41.43 0 0 0 -6.69,-1.67 19.68,19.68 0 0 1 7,0.42 28,28 0 0 1 6.69,2.39 c 0.86,0.46 1.72,0.95 2.55,1.47 z"
         id="path627" />
      <path
         d="m 334.36,405.19 -0.24,1.61 -0.78,-0.37 c -0.9,-0.44 -1.82,-0.84 -2.75,-1.21 -1.85,-0.8 -3.76,-1.44 -5.68,-2.12 l -5.82,-2 a 29.1,29.1 0 0 1 6.17,0.69 36.07,36.07 0 0 1 6,1.83 c 1.03,0.51 2.09,1.01 3.1,1.57 z"
         id="path629" />
      <path
         d="m 325.32,416.72 h -2.24 l -1.7,-1.88 c -1,-1.13 -2,-2.28 -3,-3.51 a 21.53,21.53 0 0 1 3.88,2.56 27.19,27.19 0 0 1 3.06,2.83 z"
         id="path631" />
    </g>
    <path
       d="m 288.46,295.18 c 4.73,-11.65 -1.53,-24.43 -1.53,-24.43 a 33.56,33.56 0 0 0 -14.82,9.92 87.23,87.23 0 0 0 -10,-0.8 c -1.55,-3.26 -5.92,-10.77 -13.87,-12.38 0,0 -4.71,14.43 -0.82,22.39 a 63.92,63.92 0 0 0 -4.39,6.57 c -2.82,5 0.48,12 3,15.87 2.52,3.87 9.83,8.76 17.09,9.54 10.6,1.13 22.38,-6.49 24.82,-10.79 1.26,-2.27 2.35,-9.17 0.52,-15.89 z"
       style="fill:#263238"
       id="path635" />
    <path
       d="m 287.92,311.07 a 6.32,6.32 0 0 1 -0.63,0.92 q -0.21,0.27 -0.48,0.57 c -3.65,4.12 -13.13,9.66 -22.15,9.4 -0.52,0 -1.05,0 -1.56,-0.1 a 27.49,27.49 0 0 1 -13.44,-5.73 16.71,16.71 0 0 1 -3.66,-3.81 26.94,26.94 0 0 1 -3.72,-8.56 c -0.05,-0.21 -0.1,-0.43 -0.13,-0.65 a 10,10 0 0 1 0.88,-6.66 v 0 c 0.14,-0.24 0.28,-0.5 0.44,-0.76 0.16,-0.26 0.21,-0.36 0.33,-0.55 1,-1.57 2.22,-3.4 3.6,-5.24 a 12.22,12.22 0 0 1 -0.89,-2.44 c -2.15,-8.15 1.7,-19.95 1.7,-19.95 7.44,1.5 11.75,8.17 13.55,11.7 q 0.18,0.36 0.33,0.69 h 0.47 c 0.3,0 0.6,0 0.91,0 0.31,0 0.63,0 0.94,0 h 0.19 c 0.71,0 1.41,0.08 2.1,0.13 h 0.18 c 0.92,0.07 1.81,0.16 2.64,0.25 h 0.1 l 0.8,0.1 c 0.6,0.07 1.17,0.13 1.67,0.2 a 33.56,33.56 0 0 1 14.82,-9.92 c 0,0 6.26,12.78 1.53,24.43 a 29.4,29.4 0 0 1 0.91,9.5 c 0,0.53 -0.09,1 -0.15,1.52 a 14.52,14.52 0 0 1 -1.28,4.96 z"
       style="opacity:0.2;fill:#ffffff"
       id="path637" />
    <path
       d="m 264.7,321.83 c -0.53,0 -1.06,0 -1.59,0 a 23.23,23.23 0 0 1 -13.33,-6.08 9.37,9.37 0 0 1 -0.81,-6.95 l 0.22,0.84 a 3.79,3.79 0 0 1 1.1,-3.25 v 1.78 c 0,0 0.95,-5.65 5.54,-4 l 3.22,0.53 c 5,-0.72 7.32,6.27 7.32,6.27 l 0.44,-1.56 c 0,0 3.09,2.45 3.38,5.66 l 1.19,-0.55 c 0,0 -1.09,5.95 -6.68,7.31 z"
       style="opacity:0.2;fill:#ffffff"
       id="path639" />
    <path
       d="m 272.74,299.8 c -0.18,2 -1.41,3.55 -2.74,3.43 -1.33,-0.12 -2.28,-1.84 -2.1,-3.85 0.18,-2.01 1.4,-3.55 2.74,-3.44 1.34,0.11 2.28,1.85 2.1,3.86 z"
       style="fill:#263238"
       id="path641" />
    <path
       d="m 254.75,297.35 c -0.48,2 -1.92,3.3 -3.23,3 -1.31,-0.3 -2,-2.17 -1.49,-4.13 0.51,-1.96 1.93,-3.3 3.23,-3 1.3,0.3 1.97,2.17 1.49,4.13 z"
       style="fill:#263238"
       id="path643" />
    <path
       d="m 254.5,304.05 a 3.14,3.14 0 0 1 3.89,0.46 c 0.68,0.57 -2,2.54 -2,2.54 0,0 -2.48,-2.16 -1.89,-3 z"
       style="fill:#263238"
       id="path645" />
    <path
       d="m 261.57,313.08 c -2.2,0 -5.19,-1.36 -5.61,-2.17 -0.55,-1.07 -0.05,-4.94 0,-5.71 a 0.41,0.41 0 0 1 0.45,-0.34 0.4,0.4 0 0 1 0.34,0.45 c -0.23,1.68 -0.47,4.58 -0.14,5.23 0.33,0.65 4,2.25 5.84,1.62 0.27,-0.1 1.1,-0.39 0.83,-2 a 0.4,0.4 0 0 1 0.33,-0.46 0.4,0.4 0 0 1 0.46,0.33 c 0.33,2 -0.74,2.67 -1.4,2.89 a 3.48,3.48 0 0 1 -1.1,0.16 z"
       style="fill:#263238"
       id="path647" />
    <path
       d="m 254.85,311.59 a 4,4 0 0 1 -2.28,-0.81 3,3 0 0 1 -1.4,-2 1.9,1.9 0 0 1 0.4,-1.39 0.4,0.4 0 0 1 0.56,0 0.41,0.41 0 0 1 0,0.56 1,1 0 0 0 -0.21,0.78 2.28,2.28 0 0 0 1.07,1.41 c 1.81,1.28 3,0.3 3,0.29 a 0.40078049,0.40078049 0 1 1 0.52,0.61 2.89,2.89 0 0 1 -1.66,0.55 z"
       style="fill:#263238"
       id="path649" />
    <path
       d="m 289.22,306.2 c -1.56,-1.67 -5.51,-4.52 -15.19,-6.65 0,0 10.87,0.66 15.34,5.13 -0.04,0.53 -0.09,1.04 -0.15,1.52 z"
       style="opacity:0.4"
       id="path651" />
    <path
       d="m 259.72,296.49 c 0,0.25 0.52,-10.41 4.9,-16.53 0.71,0 1.41,0.08 2.1,0.13 h 0.18 a 38.89,38.89 0 0 0 -7.18,16.4 z"
       style="opacity:0.4"
       id="path653" />
    <path
       d="m 273.14,284.56 c 0,0 6.36,-9.3 13.12,-12.45 a 27.47,27.47 0 0 1 0.86,22.35 c 0,0 -4.62,-1 -6,-3 0,0 1.05,-2.8 3,-3.8 a 8.23,8.23 0 0 0 -3.43,2 c 0,0 0.72,-4.62 2.54,-6.78 0,0 -3.53,2.53 -4.44,6 -0.06,0.03 -4.79,-1.58 -5.65,-4.32 z"
       style="opacity:0.2;fill:#ffffff"
       id="path655" />
    <path
       d="m 272.11,280.67 a 18.25,18.25 0 0 0 -1.12,2.67 5.83,5.83 0 0 1 -1.35,-3 c 0.91,0.13 1.75,0.23 2.47,0.33 z"
       style="opacity:0.2"
       id="path657" />
    <path
       d="m 248.18,289.32 c 0,0 3.38,-3.46 5.27,-4.45 0,0 -1.47,-2.82 -2.09,-3.08 a 7.3,7.3 0 0 1 2.52,1.58 c 0,0 -0.3,-3 -1.52,-4.48 a 13.86,13.86 0 0 1 3.16,4.34 l 3,-1.81 a 24.89,24.89 0 0 0 -10,-12.75 c 0,0 -4.25,12.91 -0.34,20.65 z"
       style="opacity:0.2;fill:#ffffff"
       id="path659" />
    <path
       d="m 243.05,296.43 a 63.34,63.34 0 0 1 4.37,-6.55 12.22,12.22 0 0 1 -0.89,-2.44 c 4,-3.78 10.24,-4.95 10.24,-4.95 a 56.78,56.78 0 0 0 -13.72,13.94 z"
       style="opacity:0.2"
       id="path661" />
    <path
       d="m 270.44,280.47 a 19.39,19.39 0 0 0 -1.92,2.51 13.18,13.18 0 0 0 -1.15,2.16 c -0.31,0.73 -0.5,1.59 -0.91,2.35 a 23,23 0 0 1 -3,4 11.73,11.73 0 0 0 -2.6,4.1 11.74,11.74 0 0 1 2.44,-4.23 22.79,22.79 0 0 0 2.81,-4.08 23.75,23.75 0 0 0 0.79,-2.34 14.26,14.26 0 0 1 1.09,-2.3 22.74,22.74 0 0 1 1.57,-2.3 h 0.1 z"
       style="opacity:0.4"
       id="path663" />
    <path
       d="m 259.05,290 a 24.07,24.07 0 0 1 -0.23,4.57 24.8,24.8 0 0 0 0,-4.56 16.2,16.2 0 0 1 0,-2.31 6.6,6.6 0 0 1 0.73,-2.22 19.71,19.71 0 0 0 0.88,-2.1 13.53,13.53 0 0 1 1.11,-2 c 0.32,-0.48 0.65,-1 1,-1.4 0.3,0 0.6,0 0.91,0 -0.49,0.56 -0.95,1.13 -1.39,1.74 a 12.41,12.41 0 0 0 -1.15,1.91 c -0.29,0.67 -0.62,1.42 -1,2.08 a 5.74,5.74 0 0 0 -0.8,2.06 18.79,18.79 0 0 0 -0.06,2.23 z"
       style="opacity:0.4"
       id="path665" />
    <path
       d="m 287.29,312 q -0.21,0.27 -0.48,0.57 a 28.8,28.8 0 0 1 -5.94,-3.5 11.64,11.64 0 0 1 -3.28,-3.6 5,5 0 0 0 -3.81,-2.58 5.14,5.14 0 0 1 4,2.48 11.18,11.18 0 0 0 3.35,3.36 29,29 0 0 0 6.16,3.27 z"
       style="opacity:0.4"
       id="path667" />
    <path
       d="m 249,294.72 a 12.15,12.15 0 0 0 -2.76,0.15 11.87,11.87 0 0 0 -2.63,0.77 h -0.08 c 0.1,-0.18 0.21,-0.36 0.33,-0.55 a 12.68,12.68 0 0 1 2.35,-0.46 12.39,12.39 0 0 1 2.79,0.09 z"
       style="opacity:0.4"
       id="path669" />
    <path
       d="m 248.16,298.43 a 6.17,6.17 0 0 0 -2.76,1.57 18,18 0 0 0 -2.11,2.42 c -0.35,0.44 -0.68,0.89 -1,1.33 -0.05,-0.21 -0.1,-0.43 -0.13,-0.65 l 0.81,-0.95 a 19.3,19.3 0 0 1 2.3,-2.31 6.32,6.32 0 0 1 2.89,-1.41 z"
       style="opacity:0.4"
       id="path671" />
    <path
       d="m 300.2,403.13 c 0,0 -32.2,13.27 -45.55,8.06 a 75.61,75.61 0 0 1 -3,-12.44 c 8.81,2.82 31.44,7.84 48.55,4.38 z"
       style="opacity:0.2"
       id="path673" />
    <path
       d="m 304,400.73 c 0,0 -44,15.47 -64.58,-1.8 -24.69,-20.71 -3,-47.64 -8.32,-52.36 -5.32,-4.72 -12.72,-4.62 -16,11.23 -3.28,15.85 -1.45,58.92 41.55,58.92 h 52.62 z"
       style="fill:#263238"
       id="path675" />
    <path
       d="m 309.31,416.72 h -52.62 c -1.32,0 -2.6,0 -3.85,-0.12 -0.56,0 -1.12,-0.08 -1.67,-0.14 a 41.8,41.8 0 0 1 -16,-4.56 c -0.51,-0.26 -1,-0.55 -1.48,-0.84 a 34.78,34.78 0 0 1 -10.24,-9.29 c -0.35,-0.48 -0.68,-1 -1,-1.44 a 46,46 0 0 1 -5.82,-12.73 c -0.17,-0.56 -0.33,-1.13 -0.46,-1.69 a 64.09,64.09 0 0 1 -1.88,-11.77 c 0,-0.58 -0.06,-1.16 -0.09,-1.73 a 67.5,67.5 0 0 1 0.23,-9.38 51.42,51.42 0 0 1 0.76,-5.23 c 3.25,-15.85 10.66,-16 16,-11.23 2.39,2.13 -0.69,8.76 -2.54,17.3 a 50,50 0 0 0 -1.14,7.89 c 0,0.55 -0.06,1.11 -0.07,1.67 a 32.81,32.81 0 0 0 0.94,8.6 c 0.14,0.55 0.29,1.1 0.47,1.65 a 29.5,29.5 0 0 0 4.38,8.59 c 0.33,0.47 0.69,0.94 1.07,1.4 a 39.19,39.19 0 0 0 5.22,5.27 28.44,28.44 0 0 0 3,2.17 c 0.5,0.31 1,0.62 1.53,0.9 a 36.31,36.31 0 0 0 8.43,3.33 l 1.63,0.4 a 62.13,62.13 0 0 0 13.49,1.36 h 1.75 a 103.94,103.94 0 0 0 13.17,-1.19 l 1.81,-0.29 A 131.67,131.67 0 0 0 304,400.74 Z"
       style="opacity:0.2;fill:#ffffff"
       id="path677" />
    <path
       d="m 228.56,363.87 c -4.9,-2.07 -10.43,-1.6 -14.18,-0.84 a 51.42,51.42 0 0 1 0.76,-5.23 c 3.25,-15.85 10.66,-16 16,-11.23 2.35,2.13 -0.73,8.76 -2.58,17.3 z"
       style="opacity:0.4"
       id="path679" />
    <g
       style="opacity:0.4"
       id="g697">
      <path
         d="m 227.42,371.76 c 0,0.55 -0.06,1.11 -0.07,1.67 a 33,33 0 0 0 -13.11,0.71 c 0,-0.58 -0.06,-1.16 -0.09,-1.73 a 35.2,35.2 0 0 1 13.27,-0.65 z"
         id="path681" />
      <path
         d="m 228.76,383.68 a 31.55,31.55 0 0 0 -12.18,3.92 c -0.17,-0.56 -0.33,-1.13 -0.46,-1.69 A 33.44,33.44 0 0 1 228.29,382 c 0.14,0.58 0.29,1.13 0.47,1.68 z"
         id="path683" />
      <path
         d="m 234.21,393.67 a 28,28 0 0 0 -10.79,8.1 c -0.35,-0.48 -0.68,-1 -1,-1.44 a 29.19,29.19 0 0 1 10.74,-8.06 c 0.31,0.47 0.67,0.94 1.05,1.4 z"
         id="path685" />
      <path
         d="m 242.39,401.11 c 0.5,0.31 1,0.62 1.53,0.9 a 46.7,46.7 0 0 0 -8.78,9.89 c -0.51,-0.26 -1,-0.55 -1.48,-0.84 a 48.27,48.27 0 0 1 8.73,-9.95 z"
         id="path687" />
      <path
         d="m 254,405.74 a 95.26,95.26 0 0 0 -1.14,10.86 c -0.56,0 -1.12,-0.08 -1.67,-0.14 a 95.35,95.35 0 0 1 1.18,-11.12 z"
         id="path689" />
      <path
         d="m 269.22,407.09 a 32,32 0 0 0 -0.91,9.63 h -1.68 a 35.41,35.41 0 0 1 0.84,-9.62 h 1.75 z"
         id="path691" />
      <path
         d="m 288.55,416.72 h -1.7 c -0.66,-4.15 -3,-8.38 -4.46,-10.82 l 1.81,-0.29 a 32.16,32.16 0 0 1 4.35,11.11 z"
         id="path693" />
      <path
         d="m 300.8,416.72 h -1.65 c 1.05,-5.62 -0.93,-12 -0.93,-12 a 18.65,18.65 0 0 1 2.58,12 z"
         id="path695" />
    </g>
  </g>
  <g
     id="freepik--Food--inject-29"
     transform="translate(-8.9171975,-139.49045)">
    <path
       d="m 87.25,395.11 a 4.58,4.58 0 0 1 1.75,-3.67 3.74,3.74 0 0 1 2,-0.55 c 0,0 -0.8,-1.6 2,-1.74 2.8,-0.14 1.72,-0.34 2.64,-1.55 0.92,-1.21 3.56,-0.75 3.56,-0.75 0,0 -0.66,-1.11 3,-2 3.66,-0.89 4.55,0.92 4.55,0.92 0,0 1.24,-1.7 2.83,-0.92 a 4.31,4.31 0 0 1 2,2.79 2.4,2.4 0 0 1 3.43,0 l 1.71,1.69 a 6.18,6.18 0 0 1 2.9,1 c 1.32,0.89 1,0.89 2,0.89 a 6.59,6.59 0 0 1 2.84,0.08 4.24,4.24 0 0 1 2.24,2.15 c 1.83,3.09 -39.45,1.66 -39.45,1.66 z"
       style="fill:#407bff"
       id="path700" />
    <path
       d="M 137.1,416.72 H 76.57 L 81,393.91 a 2,2 0 0 1 0.9,-1.32 2,2 0 0 1 1.09,-0.32 h 47.69 a 1.94,1.94 0 0 1 0.73,0.14 2,2 0 0 1 1.26,1.5 l 1,5.3 1,5.05 0.58,3 0.7,3.56 z"
       style="fill:#263238"
       id="path702" />
    <path
       d="m 136,410.83 h -27 a 6.37,6.37 0 0 1 -6.25,-5.81 c 0,-0.15 0,-0.31 0,-0.46 a 5.29,5.29 0 0 1 5.38,-5.35 h 25.57 l 1,5.05 0.58,3 z"
       style="opacity:0.4;fill:#ffffff"
       id="path704" />
    <g
       style="opacity:0.4"
       id="g716">
      <path
         d="m 112.49,402.54 -1,2.8 -1.4,-2.8 h -0.92 l 1.94,3.79 v 0.15 c -0.14,0.38 -0.32,0.52 -0.63,0.52 a 1,1 0 0 1 -0.67,-0.26 l -0.3,0.65 a 1.67,1.67 0 0 0 1,0.35 c 0.62,0 1.09,-0.26 1.37,-1.12 l 1.45,-4.08 z"
         id="path706" />
      <path
         d="m 117.54,402.54 h -0.88 l 0.15,1.91 c 0.06,0.76 -0.33,1.14 -1,1.14 -0.67,0 -0.91,-0.32 -1,-1 l -0.15,-2 h -0.89 l 0.17,2.16 a 1.62,1.62 0 0 0 1.75,1.67 1.45,1.45 0 0 0 1.18,-0.53 v 0.48 h 0.84 z"
         id="path708" />
      <path
         d="m 125.14,404.16 a 1.71,1.71 0 0 0 -3,-1 1.56,1.56 0 0 0 -1.32,-0.63 1.45,1.45 0 0 0 -1.2,0.53 v -0.49 h -0.84 l 0.29,3.78 h 0.88 l -0.14,-1.92 c -0.06,-0.75 0.31,-1.13 0.89,-1.13 0.58,0 0.88,0.33 0.93,1 l 0.15,2.05 h 0.89 l -0.15,-1.92 c -0.06,-0.75 0.32,-1.13 0.9,-1.13 0.58,0 0.87,0.33 0.92,1 l 0.16,2.05 h 0.88 z"
         id="path710" />
      <path
         d="m 132.58,404.16 a 1.71,1.71 0 0 0 -3,-1 1.56,1.56 0 0 0 -1.32,-0.63 1.45,1.45 0 0 0 -1.2,0.53 v -0.49 h -0.84 l 0.29,3.78 h 0.88 l -0.14,-1.92 c -0.06,-0.75 0.31,-1.13 0.89,-1.13 0.58,0 0.88,0.33 0.93,1 l 0.15,2.05 H 130 l -0.15,-1.92 c -0.06,-0.75 0.32,-1.13 0.9,-1.13 0.58,0 0.87,0.33 0.92,1 l 0.16,2.05 h 0.88 z"
         id="path712" />
      <path
         d="m 134.68,404.26 -0.86,-1.72 h -0.92 l 1.93,3.79 -0.05,0.15 c -0.14,0.38 -0.31,0.52 -0.62,0.52 a 1,1 0 0 1 -0.67,-0.26 l -0.31,0.65 a 1.69,1.69 0 0 0 1,0.35 1.19,1.19 0 0 0 1,-0.47 z"
         id="path714" />
    </g>
    <path
       d="m 124.57,391.22 a 1.57,1.57 0 0 1 -0.43,0.38 2.56,2.56 0 0 1 -1.12,0.26 16.7,16.7 0 0 1 -5,-0.76 l -1.12,-0.29 a 0.72,0.72 0 0 0 -0.32,0 c -0.21,0 -0.39,0.22 -0.6,0.19 -0.21,-0.03 -0.3,-0.19 -0.47,-0.26 -0.43,-0.16 -0.85,0.42 -1.3,0.34 a 2.62,2.62 0 0 1 -0.39,-0.15 2.32,2.32 0 0 0 -0.59,0 2.2,2.2 0 0 1 -2,-1.14 4.15,4.15 0 0 1 -2.44,1.67 2.34,2.34 0 0 1 -2.54,-1.19 c -0.07,-0.16 -0.13,-0.35 -0.29,-0.43 -0.16,-0.08 -0.46,0.08 -0.59,0.29 a 2.62,2.62 0 0 1 -0.35,0.61 1.27,1.27 0 0 1 -0.86,0.24 6.09,6.09 0 0 1 -3.89,-0.79 0.67,0.67 0 0 0 -0.52,-0.22 c -0.18,0 -0.29,0.2 -0.4,0.34 a 3.83,3.83 0 0 1 -5.42,0.63 1,1 0 0 1 -1.31,0.27 c -0.11,-0.07 -0.21,-0.17 -0.34,-0.17 -0.13,0 -0.29,0.13 -0.42,0.24 a 3.27,3.27 0 0 1 -2.9,0.22 3.74,3.74 0 0 1 2,-0.55 c 0,0 -0.8,-1.6 2,-1.74 2.8,-0.14 1.72,-0.34 2.64,-1.55 0.92,-1.21 3.56,-0.75 3.56,-0.75 0,0 -0.66,-1.11 3,-2 3.66,-0.89 4.55,0.92 4.55,0.92 0,0 1.24,-1.7 2.83,-0.92 a 4.31,4.31 0 0 1 2,2.79 2.4,2.4 0 0 1 3.43,0 l 1.71,1.69 a 6.18,6.18 0 0 1 2.9,1 c 1.32,0.89 1,0.89 2,0.89 a 6.59,6.59 0 0 1 2.99,-0.06 z"
       style="opacity:0.2;fill:#ffffff"
       id="path718" />
    <path
       d="m 131.43,392.59 a 1.72,1.72 0 0 1 -1.71,1.71 H 83.61 a 1.72,1.72 0 0 1 -1.71,-1.71 2,2 0 0 1 1.09,-0.32 h 47.69 a 1.94,1.94 0 0 1 0.73,0.14 0.55,0.55 0 0 1 0.02,0.18 z"
       style="opacity:0.1;fill:#ffffff"
       id="path720" />
  </g>
</svg>
